<?xml version="1.0" encoding="UTF-8" standalone="no"?>
<svg
   id="Calque_1"
   data-name="Calque 1"
   viewBox="0 0 1717.453 952.37294"
   version="1.1"
   sodipodi:docname="PlaqueMoule 3mm - Circular Economy - v2.svg"
   width="1717.453"
   height="952.37299"
   inkscape:version="1.4 (86a8ad7, 2024-10-11)"
   xmlns:inkscape="http://www.inkscape.org/namespaces/inkscape"
   xmlns:sodipodi="http://sodipodi.sourceforge.net/DTD/sodipodi-0.dtd"
   xmlns="http://www.w3.org/2000/svg"
   xmlns:svg="http://www.w3.org/2000/svg">
  <sodipodi:namedview
     id="namedview53"
     pagecolor="#ffffff"
     bordercolor="#999999"
     borderopacity="1"
     inkscape:showpageshadow="2"
     inkscape:pageopacity="0"
     inkscape:pagecheckerboard="0"
     inkscape:deskcolor="#d1d1d1"
     inkscape:zoom="0.59004183"
     inkscape:cx="604.19445"
     inkscape:cy="317.77408"
     inkscape:window-width="1920"
     inkscape:window-height="991"
     inkscape:window-x="-9"
     inkscape:window-y="-9"
     inkscape:window-maximized="1"
     inkscape:current-layer="Calque_1" />
  <defs
     id="defs1">
    <style
       id="style1">
      .cls-1 {
        fill: none;
        stroke: #1d1d1b;
        stroke-miterlimit: 10;
      }
    </style>
  </defs>
  <g
     id="g51"
     transform="scale(1.3333328)">
    <g
       id="g2">
      <rect
         class="cls-1"
         x="227.84"
         y="-123.48"
         width="225.64"
         height="479.06"
         transform="rotate(90,340.655,116.045)"
         id="rect1" />
      <rect
         class="cls-1"
         x="173.41"
         y="52.259998"
         width="334.48999"
         height="127.56"
         id="rect2" />
    </g>
    <g
       id="g50">
      <g
         id="g49">
        <g
           id="g25">
          <circle
             class="cls-1"
             cx="14.67"
             cy="31"
             r="7.0900002"
             id="circle2" />
          <circle
             class="cls-1"
             cx="71.370003"
             cy="31"
             r="7.0900002"
             id="circle3" />
          <circle
             class="cls-1"
             cx="128.06"
             cy="31"
             r="7.0900002"
             id="circle4" />
          <circle
             class="cls-1"
             cx="184.75"
             cy="31"
             r="7.0900002"
             id="circle5" />
          <circle
             class="cls-1"
             cx="241.44"
             cy="31"
             r="7.0900002"
             id="circle6" />
          <circle
             class="cls-1"
             cx="298.14001"
             cy="31"
             r="7.0900002"
             id="circle7" />
          <circle
             class="cls-1"
             cx="354.82999"
             cy="31"
             r="7.0900002"
             id="circle8" />
          <circle
             class="cls-1"
             cx="411.51999"
             cy="31"
             r="7.0900002"
             id="circle9" />
          <circle
             class="cls-1"
             cx="468.22"
             cy="31"
             r="7.0900002"
             id="circle10" />
          <circle
             class="cls-1"
             cx="524.90997"
             cy="31"
             r="7.0900002"
             id="circle11" />
          <circle
             class="cls-1"
             cx="581.59998"
             cy="31"
             r="7.0900002"
             id="circle12" />
          <circle
             class="cls-1"
             cx="638.29999"
             cy="31"
             r="7.0900002"
             id="circle13" />
          <circle
             class="cls-1"
             cx="43.02"
             cy="87.699997"
             r="7.0900002"
             id="circle14" />
          <circle
             class="cls-1"
             cx="99.709999"
             cy="87.699997"
             r="7.0900002"
             id="circle15" />
          <circle
             class="cls-1"
             cx="156.41"
             cy="87.699997"
             r="7.0900002"
             id="circle16" />
          <circle
             class="cls-1"
             cx="213.10001"
             cy="87.699997"
             r="7.0900002"
             id="circle17" />
          <circle
             class="cls-1"
             cx="269.79001"
             cy="87.699997"
             r="7.0900002"
             id="circle18" />
          <circle
             class="cls-1"
             cx="326.48001"
             cy="87.699997"
             r="7.0900002"
             id="circle19" />
          <circle
             class="cls-1"
             cx="383.17999"
             cy="87.699997"
             r="7.0900002"
             id="circle20" />
          <circle
             class="cls-1"
             cx="439.87"
             cy="87.699997"
             r="7.0900002"
             id="circle21" />
          <circle
             class="cls-1"
             cx="496.56"
             cy="87.699997"
             r="7.0900002"
             id="circle22" />
          <circle
             class="cls-1"
             cx="553.26001"
             cy="87.699997"
             r="7.0900002"
             id="circle23" />
          <circle
             class="cls-1"
             cx="609.95001"
             cy="87.699997"
             r="7.0900002"
             id="circle24" />
          <circle
             class="cls-1"
             cx="666.64001"
             cy="87.699997"
             r="7.0900002"
             id="circle25" />
        </g>
        <circle
           class="cls-1"
           cx="14.67"
           cy="144.39"
           r="7.0900002"
           id="circle26" />
        <circle
           class="cls-1"
           cx="71.370003"
           cy="144.39"
           r="7.0900002"
           id="circle27" />
        <circle
           class="cls-1"
           cx="128.06"
           cy="144.39"
           r="7.0900002"
           id="circle28" />
        <circle
           class="cls-1"
           cx="184.75"
           cy="144.39"
           r="7.0900002"
           id="circle29" />
        <circle
           class="cls-1"
           cx="241.44"
           cy="144.39"
           r="7.0900002"
           id="circle30" />
        <circle
           class="cls-1"
           cx="298.14001"
           cy="144.39"
           r="7.0900002"
           id="circle31" />
        <circle
           class="cls-1"
           cx="354.82999"
           cy="144.39"
           r="7.0900002"
           id="circle32" />
        <circle
           class="cls-1"
           cx="411.51999"
           cy="144.39"
           r="7.0900002"
           id="circle33" />
        <circle
           class="cls-1"
           cx="468.22"
           cy="144.39"
           r="7.0900002"
           id="circle34" />
        <circle
           class="cls-1"
           cx="524.90997"
           cy="144.39"
           r="7.0900002"
           id="circle35" />
        <circle
           class="cls-1"
           cx="581.59998"
           cy="144.39"
           r="7.0900002"
           id="circle36" />
        <circle
           class="cls-1"
           cx="638.29999"
           cy="144.39"
           r="7.0900002"
           id="circle37" />
        <circle
           class="cls-1"
           cx="43.02"
           cy="201.08"
           r="7.0900002"
           id="circle38" />
        <circle
           class="cls-1"
           cx="99.709999"
           cy="201.08"
           r="7.0900002"
           id="circle39" />
        <circle
           class="cls-1"
           cx="156.41"
           cy="201.08"
           r="7.0900002"
           id="circle40" />
        <circle
           class="cls-1"
           cx="213.10001"
           cy="201.08"
           r="7.0900002"
           id="circle41" />
        <circle
           class="cls-1"
           cx="269.79001"
           cy="201.08"
           r="7.0900002"
           id="circle42" />
        <circle
           class="cls-1"
           cx="326.48001"
           cy="201.08"
           r="7.0900002"
           id="circle43" />
        <circle
           class="cls-1"
           cx="383.17999"
           cy="201.08"
           r="7.0900002"
           id="circle44" />
        <circle
           class="cls-1"
           cx="439.87"
           cy="201.08"
           r="7.0900002"
           id="circle45" />
        <circle
           class="cls-1"
           cx="496.56"
           cy="201.08"
           r="7.0900002"
           id="circle46" />
        <circle
           class="cls-1"
           cx="553.26001"
           cy="201.08"
           r="7.0900002"
           id="circle47" />
        <circle
           class="cls-1"
           cx="609.95001"
           cy="201.08"
           r="7.0900002"
           id="circle48" />
        <circle
           class="cls-1"
           cx="666.64001"
           cy="201.08"
           r="7.0900002"
           id="circle49" />
      </g>
      <rect
         class="cls-1"
         x="0.5"
         y="2.6600001"
         width="680.31"
         height="226.77"
         id="rect49" />
    </g>
  </g>
  <path
     class="cls-1"
     d="M 1075.7995,0.66666638 V 301.51987 h 638.7464 V 0.66666638 Z M 1489.666,28.253321 c 5.2134,0 9.4534,4.239998 9.4534,9.45333 0,5.213331 -4.24,9.453329 -9.4534,9.453329 -5.2133,0 -9.4533,-4.239998 -9.4533,-9.453329 0,-5.213332 4.2267,-9.45333 9.4533,-9.45333 z m -151.1866,0 c 5.2267,0 9.4534,4.239998 9.4534,9.45333 0,5.213331 -4.2267,9.453329 -9.4534,9.453329 -5.2266,0 -9.44,-4.239998 -9.44,-9.453329 0,-5.213332 4.2267,-9.45333 9.44,-9.45333 z m -151.1732,0 c 5.2133,0 9.44,4.239998 9.44,9.45333 0,5.213331 -4.2267,9.453329 -9.44,9.453329 -5.2134,0 -9.4534,-4.239998 -9.4534,-9.453329 0,-5.213332 4.2267,-9.45333 9.4534,-9.45333 z m -75.6,170.079929 c -5.2133,0 -9.44,-4.22667 -9.44,-9.44 0,-5.21333 4.2267,-9.45333 9.44,-9.45333 5.2133,0 9.4533,4.22667 9.4533,9.45333 0,5.22667 -4.2266,9.44 -9.4533,9.44 z m 37.8,-75.58664 c -5.2134,0 -9.4534,-4.22666 -9.4534,-9.45333 0,-5.22666 4.24,-9.43999 9.4534,-9.43999 5.2133,0 9.4533,4.22666 9.4533,9.43999 0,5.21334 -4.24,9.45333 -9.4533,9.45333 z m 151.1866,151.17327 c -5.2267,0 -9.4534,-4.22666 -9.4534,-9.43999 0,-5.21333 4.2267,-9.45333 9.4534,-9.45333 5.2266,0 9.44,4.22666 9.44,9.45333 0,5.22666 -4.2267,9.43999 -9.44,9.43999 z m 151.1732,0 c -5.2133,0 -9.44,-4.22666 -9.44,-9.43999 0,-5.21333 4.2267,-9.45333 9.44,-9.45333 5.2134,0 9.4534,4.22666 9.4534,9.45333 0,5.22666 -4.2267,9.43999 -9.4534,9.43999 z m 151.1866,0 c -5.2266,0 -9.4533,-4.22666 -9.4533,-9.43999 0,-5.21333 4.2267,-9.45333 9.4533,-9.45333 5.2267,0 9.44,4.22666 9.44,9.45333 0,5.22666 -4.2266,9.43999 -9.44,9.43999 z m 15.12,-37.78665 H 1172.1862 V 66.053305 h 445.9864 z m 22.6667,-37.79998 c -5.2133,0 -9.44,-4.22667 -9.44,-9.44 0,-5.21333 4.2267,-9.45333 9.44,-9.45333 5.2133,0 9.4533,4.22667 9.4533,9.45333 0,5.22667 -4.2266,9.44 -9.4533,9.44 z m 37.8,-75.58664 c -5.2133,0 -9.4533,-4.22666 -9.4533,-9.45333 0,-5.22666 4.24,-9.43999 9.4533,-9.43999 5.2133,0 9.4533,4.22666 9.4533,9.43999 0,5.21334 -4.24,9.45333 -9.4533,9.45333 z"
     id="path51"
     style="stroke-width:1.33333" />
  <path
     class="cls-1"
     d="M 1075.7995,325.53319 V 626.3864 h 638.7464 V 325.53319 Z m 35.9067,197.66659 c -5.2133,0 -9.4533,-4.22667 -9.4533,-9.45333 0,-5.22667 4.24,-9.44 9.4533,-9.44 5.2133,0 9.4533,4.22667 9.4533,9.44 0,5.21333 -4.24,9.45333 -9.4533,9.45333 z m 37.8,-75.58664 c -5.2267,0 -9.4534,-4.22666 -9.4534,-9.45333 0,-5.22666 4.2267,-9.43999 9.4534,-9.43999 5.2266,0 9.44,4.22666 9.44,9.43999 0,5.21333 -4.2267,9.45333 -9.44,9.45333 z m 37.7866,-75.58663 c -5.2133,0 -9.44,-4.24 -9.44,-9.45333 0,-5.21333 4.2267,-9.45333 9.44,-9.45333 5.2134,0 9.4534,4.24 9.4534,9.45333 0,5.21333 -4.2267,9.45333 -9.4534,9.45333 z m 113.3866,226.7599 c -5.2133,0 -9.4533,-4.22666 -9.4533,-9.44 0,-5.21333 4.24,-9.45332 9.4533,-9.45332 5.2134,0 9.4534,4.22666 9.4534,9.45332 0,5.22667 -4.2267,9.44 -9.4534,9.44 z m 37.8,-226.7599 c -5.2266,0 -9.4533,-4.24 -9.4533,-9.45333 0,-5.21333 4.2267,-9.45333 9.4533,-9.45333 5.2267,0 9.44,4.24 9.44,9.45333 0,5.21333 -4.2266,9.45333 -9.44,9.45333 z m 75.5867,151.17327 c -5.2134,0 -9.4534,-4.22667 -9.4534,-9.45333 0,-5.22667 4.24,-9.44 9.4534,-9.44 5.2133,0 9.4533,4.22667 9.4533,9.44 0,5.21333 -4.24,9.45333 -9.4533,9.45333 z m 37.7999,75.58663 c -5.2266,0 -9.4533,-4.22666 -9.4533,-9.44 0,-5.21333 4.2267,-9.45332 9.4533,-9.45332 5.2267,0 9.44,4.22666 9.44,9.45332 0,5.22667 -4.2266,9.44 -9.44,9.44 z m 37.7867,-226.7599 c -5.2133,0 -9.44,-4.24 -9.44,-9.45333 0,-5.21333 4.2267,-9.45333 9.44,-9.45333 5.2133,0 9.4533,4.24 9.4533,9.45333 0,5.21333 -4.2266,9.45333 -9.4533,9.45333 z m 113.3866,226.7599 c -5.2133,0 -9.44,-4.22666 -9.44,-9.44 0,-5.21333 4.2267,-9.45332 9.44,-9.45332 5.2133,0 9.4533,4.22666 9.4533,9.45332 0,5.22667 -4.2266,9.44 -9.4533,9.44 z m 37.8,-75.58663 c -5.2133,0 -9.4533,-4.22667 -9.4533,-9.45333 0,-5.22667 4.24,-9.44 9.4533,-9.44 5.2133,0 9.4533,4.22667 9.4533,9.44 0,5.21333 -4.24,9.45333 -9.4533,9.45333 z m 37.8,-75.58664 c -5.2267,0 -9.4533,-4.22666 -9.4533,-9.45333 0,-5.22666 4.2266,-9.43999 9.4533,-9.43999 5.2266,0 9.44,4.22666 9.44,9.43999 0,5.21333 -4.2267,9.45333 -9.44,9.45333 z"
     id="path52"
     style="stroke-width:1.33333" />
  <path
     class="cls-1"
     d="m 1078.0395,650.85305 v 300.85321 h 638.7464 V 650.85305 Z m 35.9067,197.66659 c -5.2133,0 -9.4533,-4.22667 -9.4533,-9.45333 0,-5.22667 4.24,-9.44 9.4533,-9.44 5.2133,0 9.4533,4.22667 9.4533,9.44 0,5.21333 -4.24,9.45333 -9.4533,9.45333 z m 37.8,-75.58664 c -5.2267,0 -9.4534,-4.22666 -9.4534,-9.45333 0,-5.22666 4.2267,-9.43999 9.4534,-9.43999 5.2266,0 9.44,4.22666 9.44,9.43999 0,5.21333 -4.2267,9.45333 -9.44,9.45333 z m 37.7866,-75.58663 c -5.2133,0 -9.44,-4.24 -9.44,-9.45333 0,-5.21333 4.2267,-9.45333 9.44,-9.45333 5.2134,0 9.4534,4.24 9.4534,9.45333 0,5.21333 -4.2267,9.45333 -9.4534,9.45333 z m 113.3866,226.7599 c -5.2133,0 -9.4533,-4.22666 -9.4533,-9.43999 0,-5.21334 4.24,-9.45333 9.4533,-9.45333 5.2134,0 9.4534,4.22666 9.4534,9.45333 0,5.22666 -4.2267,9.43999 -9.4534,9.43999 z m 37.8,-226.7599 c -5.2266,0 -9.4533,-4.24 -9.4533,-9.45333 0,-5.21333 4.2267,-9.45333 9.4533,-9.45333 5.2267,0 9.44,4.24 9.44,9.45333 0,5.21333 -4.2266,9.45333 -9.44,9.45333 z m 113.3866,226.7599 c -5.2266,0 -9.4533,-4.22666 -9.4533,-9.43999 0,-5.21334 4.2267,-9.45333 9.4533,-9.45333 5.2267,0 9.44,4.22666 9.44,9.45333 0,5.22666 -4.2266,9.43999 -9.44,9.43999 z m 37.7867,-226.7599 c -5.2133,0 -9.44,-4.24 -9.44,-9.45333 0,-5.21333 4.2267,-9.45333 9.44,-9.45333 5.2133,0 9.4533,4.24 9.4533,9.45333 0,5.21333 -4.2266,9.45333 -9.4533,9.45333 z m 113.3866,226.7599 c -5.2133,0 -9.44,-4.22666 -9.44,-9.43999 0,-5.21334 4.2267,-9.45333 9.44,-9.45333 5.2133,0 9.4533,4.22666 9.4533,9.45333 0,5.22666 -4.2266,9.43999 -9.4533,9.43999 z m 37.8,-75.58663 c -5.2133,0 -9.4533,-4.22667 -9.4533,-9.45333 0,-5.22667 4.24,-9.44 9.4533,-9.44 5.2133,0 9.4533,4.22667 9.4533,9.44 0,5.21333 -4.24,9.45333 -9.4533,9.45333 z m 37.8,-75.58664 c -5.2267,0 -9.4533,-4.22666 -9.4533,-9.45333 0,-5.22666 4.2266,-9.43999 9.4533,-9.43999 5.2266,0 9.44,4.22666 9.44,9.43999 0,5.21333 -4.2267,9.45333 -9.44,9.45333 z"
     id="path53"
     style="stroke-width:1.33333" />
</svg>
