<?xml version="1.0" encoding="UTF-8"?>
<svg id="Calque_1" data-name="Calque 1" xmlns="http://www.w3.org/2000/svg" viewBox="0 0 1288.09 714.28">
  <defs>
    <style>
      .cls-1 {
        fill: none;
        stroke: #1d1d1b;
        stroke-miterlimit: 10;
      }
    </style>
  </defs>
  <g>
    <g>
      <rect class="cls-1" x="227.84" y="-123.48" width="225.64" height="479.06" transform="translate(456.7 -224.61) rotate(90)"/>
      <rect class="cls-1" x="173.41" y="52.26" width="334.49" height="127.56"/>
    </g>
    <g>
      <g>
        <g>
          <circle class="cls-1" cx="14.67" cy="31" r="7.09"/>
          <circle class="cls-1" cx="71.37" cy="31" r="7.09"/>
          <circle class="cls-1" cx="128.06" cy="31" r="7.09"/>
          <circle class="cls-1" cx="184.75" cy="31" r="7.09"/>
          <circle class="cls-1" cx="241.44" cy="31" r="7.09"/>
          <circle class="cls-1" cx="298.14" cy="31" r="7.09"/>
          <circle class="cls-1" cx="354.83" cy="31" r="7.09"/>
          <circle class="cls-1" cx="411.52" cy="31" r="7.09"/>
          <circle class="cls-1" cx="468.22" cy="31" r="7.09"/>
          <circle class="cls-1" cx="524.91" cy="31" r="7.09"/>
          <circle class="cls-1" cx="581.6" cy="31" r="7.09"/>
          <circle class="cls-1" cx="638.3" cy="31" r="7.09"/>
          <circle class="cls-1" cx="43.02" cy="87.7" r="7.09"/>
          <circle class="cls-1" cx="99.71" cy="87.7" r="7.09"/>
          <circle class="cls-1" cx="156.41" cy="87.7" r="7.09"/>
          <circle class="cls-1" cx="213.1" cy="87.7" r="7.09"/>
          <circle class="cls-1" cx="269.79" cy="87.7" r="7.09"/>
          <circle class="cls-1" cx="326.48" cy="87.7" r="7.09"/>
          <circle class="cls-1" cx="383.18" cy="87.7" r="7.09"/>
          <circle class="cls-1" cx="439.87" cy="87.7" r="7.09"/>
          <circle class="cls-1" cx="496.56" cy="87.7" r="7.09"/>
          <circle class="cls-1" cx="553.26" cy="87.7" r="7.09"/>
          <circle class="cls-1" cx="609.95" cy="87.7" r="7.09"/>
          <circle class="cls-1" cx="666.64" cy="87.7" r="7.09"/>
        </g>
        <circle class="cls-1" cx="14.67" cy="144.39" r="7.09"/>
        <circle class="cls-1" cx="71.37" cy="144.39" r="7.09"/>
        <circle class="cls-1" cx="128.06" cy="144.39" r="7.09"/>
        <circle class="cls-1" cx="184.75" cy="144.39" r="7.09"/>
        <circle class="cls-1" cx="241.44" cy="144.39" r="7.09"/>
        <circle class="cls-1" cx="298.14" cy="144.39" r="7.09"/>
        <circle class="cls-1" cx="354.83" cy="144.39" r="7.09"/>
        <circle class="cls-1" cx="411.52" cy="144.39" r="7.09"/>
        <circle class="cls-1" cx="468.22" cy="144.39" r="7.09"/>
        <circle class="cls-1" cx="524.91" cy="144.39" r="7.09"/>
        <circle class="cls-1" cx="581.6" cy="144.39" r="7.09"/>
        <circle class="cls-1" cx="638.3" cy="144.39" r="7.09"/>
        <circle class="cls-1" cx="43.02" cy="201.08" r="7.09"/>
        <circle class="cls-1" cx="99.71" cy="201.08" r="7.09"/>
        <circle class="cls-1" cx="156.41" cy="201.08" r="7.09"/>
        <circle class="cls-1" cx="213.1" cy="201.08" r="7.09"/>
        <circle class="cls-1" cx="269.79" cy="201.08" r="7.09"/>
        <circle class="cls-1" cx="326.48" cy="201.08" r="7.09"/>
        <circle class="cls-1" cx="383.18" cy="201.08" r="7.09"/>
        <circle class="cls-1" cx="439.87" cy="201.08" r="7.09"/>
        <circle class="cls-1" cx="496.56" cy="201.08" r="7.09"/>
        <circle class="cls-1" cx="553.26" cy="201.08" r="7.09"/>
        <circle class="cls-1" cx="609.95" cy="201.08" r="7.09"/>
        <circle class="cls-1" cx="666.64" cy="201.08" r="7.09"/>
      </g>
      <rect class="cls-1" x=".5" y="2.66" width="680.31" height="226.77"/>
    </g>
  </g>
  <path class="cls-1" d="m806.85.5v225.64h479.06V.5h-479.06Zm310.4,20.69c3.91,0,7.09,3.18,7.09,7.09s-3.18,7.09-7.09,7.09-7.09-3.18-7.09-7.09,3.17-7.09,7.09-7.09Zm-113.39,0c3.92,0,7.09,3.18,7.09,7.09s-3.17,7.09-7.09,7.09-7.08-3.18-7.08-7.09,3.17-7.09,7.08-7.09Zm-113.38,0c3.91,0,7.08,3.18,7.08,7.09s-3.17,7.09-7.08,7.09-7.09-3.18-7.09-7.09,3.17-7.09,7.09-7.09Zm-56.7,127.56c-3.91,0-7.08-3.17-7.08-7.08s3.17-7.09,7.08-7.09,7.09,3.17,7.09,7.09-3.17,7.08-7.09,7.08Zm28.35-56.69c-3.91,0-7.09-3.17-7.09-7.09s3.18-7.08,7.09-7.08,7.09,3.17,7.09,7.08-3.18,7.09-7.09,7.09Zm113.39,113.38c-3.92,0-7.09-3.17-7.09-7.08s3.17-7.09,7.09-7.09,7.08,3.17,7.08,7.09-3.17,7.08-7.08,7.08Zm113.38,0c-3.91,0-7.08-3.17-7.08-7.08s3.17-7.09,7.08-7.09,7.09,3.17,7.09,7.09-3.17,7.08-7.09,7.08Zm113.39,0c-3.92,0-7.09-3.17-7.09-7.08s3.17-7.09,7.09-7.09,7.08,3.17,7.08,7.09-3.17,7.08-7.08,7.08Zm11.34-28.34h-334.49V49.54h334.49v127.56Zm17-28.35c-3.91,0-7.08-3.17-7.08-7.08s3.17-7.09,7.08-7.09,7.09,3.17,7.09,7.09-3.17,7.08-7.09,7.08Zm28.35-56.69c-3.91,0-7.09-3.17-7.09-7.09s3.18-7.08,7.09-7.08,7.09,3.17,7.09,7.08-3.18,7.09-7.09,7.09Z"/>
  <path class="cls-1" d="m806.85,244.15v225.64h479.06v-225.64h-479.06Zm26.93,148.25c-3.91,0-7.09-3.17-7.09-7.09s3.18-7.08,7.09-7.08,7.09,3.17,7.09,7.08-3.18,7.09-7.09,7.09Zm28.35-56.69c-3.92,0-7.09-3.17-7.09-7.09s3.17-7.08,7.09-7.08,7.08,3.17,7.08,7.08-3.17,7.09-7.08,7.09Zm28.34-56.69c-3.91,0-7.08-3.18-7.08-7.09s3.17-7.09,7.08-7.09,7.09,3.18,7.09,7.09-3.17,7.09-7.09,7.09Zm85.04,170.07c-3.91,0-7.09-3.17-7.09-7.08s3.18-7.09,7.09-7.09,7.09,3.17,7.09,7.09-3.17,7.08-7.09,7.08Zm28.35-170.07c-3.92,0-7.09-3.18-7.09-7.09s3.17-7.09,7.09-7.09,7.08,3.18,7.08,7.09-3.17,7.09-7.08,7.09Zm56.69,113.38c-3.91,0-7.09-3.17-7.09-7.09s3.18-7.08,7.09-7.08,7.09,3.17,7.09,7.08-3.18,7.09-7.09,7.09Zm28.35,56.69c-3.92,0-7.09-3.17-7.09-7.08s3.17-7.09,7.09-7.09,7.08,3.17,7.08,7.09-3.17,7.08-7.08,7.08Zm28.34-170.07c-3.91,0-7.08-3.18-7.08-7.09s3.17-7.09,7.08-7.09,7.09,3.18,7.09,7.09-3.17,7.09-7.09,7.09Zm85.04,170.07c-3.91,0-7.08-3.17-7.08-7.08s3.17-7.09,7.08-7.09,7.09,3.17,7.09,7.09-3.17,7.08-7.09,7.08Zm28.35-56.69c-3.91,0-7.09-3.17-7.09-7.09s3.18-7.08,7.09-7.08,7.09,3.17,7.09,7.08-3.18,7.09-7.09,7.09Zm28.35-56.69c-3.92,0-7.09-3.17-7.09-7.09s3.17-7.08,7.09-7.08,7.08,3.17,7.08,7.08-3.17,7.09-7.08,7.09Z"/>
  <path class="cls-1" d="m808.53,488.14v225.64h479.06v-225.64h-479.06Zm26.93,148.25c-3.91,0-7.09-3.17-7.09-7.09s3.18-7.08,7.09-7.08,7.09,3.17,7.09,7.08-3.18,7.09-7.09,7.09Zm28.35-56.69c-3.92,0-7.09-3.17-7.09-7.09s3.17-7.08,7.09-7.08,7.08,3.17,7.08,7.08-3.17,7.09-7.08,7.09Zm28.34-56.69c-3.91,0-7.08-3.18-7.08-7.09s3.17-7.09,7.08-7.09,7.09,3.18,7.09,7.09-3.17,7.09-7.09,7.09Zm85.04,170.07c-3.91,0-7.09-3.17-7.09-7.08s3.18-7.09,7.09-7.09,7.09,3.17,7.09,7.09-3.17,7.08-7.09,7.08Zm28.35-170.07c-3.92,0-7.09-3.18-7.09-7.09s3.17-7.09,7.09-7.09,7.08,3.18,7.08,7.09-3.17,7.09-7.08,7.09Zm85.04,170.07c-3.92,0-7.09-3.17-7.09-7.08s3.17-7.09,7.09-7.09,7.08,3.17,7.08,7.09-3.17,7.08-7.08,7.08Zm28.34-170.07c-3.91,0-7.08-3.18-7.08-7.09s3.17-7.09,7.08-7.09,7.09,3.18,7.09,7.09-3.17,7.09-7.09,7.09Zm85.04,170.07c-3.91,0-7.08-3.17-7.08-7.08s3.17-7.09,7.08-7.09,7.09,3.17,7.09,7.09-3.17,7.08-7.09,7.08Zm28.35-56.69c-3.91,0-7.09-3.17-7.09-7.09s3.18-7.08,7.09-7.08,7.09,3.17,7.09,7.08-3.18,7.09-7.09,7.09Zm28.35-56.69c-3.92,0-7.09-3.17-7.09-7.09s3.17-7.08,7.09-7.08,7.08,3.17,7.08,7.08-3.17,7.09-7.08,7.09Z"/>
</svg>