<?xml version="1.0" encoding="utf-8"?>
<!-- Generator: Adobe Illustrator 27.9.0, SVG Export Plug-In . SVG Version: 6.00 Build 0)  -->
<svg version="1.1" id="Calque_1" xmlns="http://www.w3.org/2000/svg" xmlns:xlink="http://www.w3.org/1999/xlink" x="0px" y="0px"
	 viewBox="0 0 1700.79 1275.59" style="enable-background:new 0 0 1700.79 1275.59;" xml:space="preserve">
<style type="text/css">
	.st0{fill:none;stroke:#E30613;stroke-miterlimit:10;}
	.st1{fill:none;stroke:#000000;stroke-width:3;stroke-miterlimit:10;}
</style>
<path class="st0" d="M165.97,96.24c0,12.9,7.01,23.87,16.79,27.86v16.22c0,22.37-18.13,40.5-40.5,40.5H53.18
	c-22.36,0-40.5-18.13-40.5-40.5V124.1c9.78-3.99,16.79-14.96,16.79-27.86c0-12.9-7.01-23.86-16.79-27.86V51.24
	c0-22.36,18.14-40.5,40.5-40.5h38.87v20.05c-0.4,0.38-0.78,0.78-1.16,1.18l-9.3,9.44L63.43,59.85C56.04,69.64,47.58,80.18,41.2,91.4
	c-7.14,12.58-11.67,26.02-9.14,40.23c4.15,32.18,40.61,53.35,68.44,40.03c21.78-7.28,17.69-26.43,5.53-11.62
	c-18.39,10.54-34.71,2.32-48.46-11.9c-5.65-5.84-7.28-12.86-6.25-19.77c1.86-12.45,12.41-24.49,23.75-28.41
	c20.68-5.03,30.18-41.01,44.95-56.32c8.96-9.29,19.85-10.97,36.36,6.51c4.48,9.29,0.27,17.95-5.27,26.53
	c-5.68,8.78-12.75,17.48-13.33,26.7c-1.25,9.31-1.21,18.59-0.15,27.69c-0.07,1.95-0.74,4.2-1.72,6.62
	c-4.19,10.37-13.94,23.72-5.16,28.3c18.44-6.38,17.24-25.98,17.2-43.92c-0.02-7.12,0.14-13.96,1.78-19.63
	c1.46-2.39,3.05-4.79,4.67-7.23c10.08-15.1,21.59-31.33,14.24-50.9c-9.91-26.41-42.89-32.09-65.25-21.37v-12.2h38.87
	c22.37,0,40.5,18.14,40.5,40.5v17.14C172.98,72.38,165.97,83.34,165.97,96.24z"/>
<line class="st1" x1="74.21" y1="55.51" x2="20.89" y2="81.24"/>
<line class="st1" x1="170.05" y1="104.16" x2="116.72" y2="129.88"/>
<line class="st1" x1="81.2" y1="149.9" x2="27.88" y2="175.62"/>
</svg>
