<?xml version="1.0" encoding="utf-8"?>
<!-- Generator: Adobe Illustrator 27.9.0, SVG Export Plug-In . SVG Version: 6.00 Build 0)  -->
<svg version="1.1" id="Calque_1" xmlns="http://www.w3.org/2000/svg" xmlns:xlink="http://www.w3.org/1999/xlink" x="0px" y="0px"
	 viewBox="0 0 1700.79 1275.59" style="enable-background:new 0 0 1700.79 1275.59;" xml:space="preserve">
<style type="text/css">
	.st0{fill:none;stroke:#E30613;stroke-miterlimit:10;}
</style>
<path class="st0" d="M104.08,25.54v-14.2h38.87c22.37,0,40.5,18.14,40.5,40.5v17.14c-9.78,4-16.79,14.96-16.79,27.86
	c0,12.9,7.01,23.87,16.79,27.86v16.22c0,22.37-18.13,40.5-40.5,40.5H53.87c-22.36,0-40.5-18.13-40.5-40.5V124.7
	c9.78-3.99,16.79-14.96,16.79-27.86c0-12.9-7.01-23.86-16.79-27.86V51.84c0-22.36,18.14-40.5,40.5-40.5h38.87v22.05L104.08,25.54z"
	/>
</svg>
