<?xml version="1.0" encoding="UTF-8"?>
<svg id="Calque_1" data-name="Calque 1" xmlns="http://www.w3.org/2000/svg" viewBox="0 0 1387.24 537.74">
  <defs>
    <style>
      .cls-1 {
        fill: none;
        stroke: #e20e18;
        stroke-miterlimit: 10;
      }
    </style>
  </defs>
  <path class="cls-1" d="m562.9,310.3c0,12.9,7.01,23.87,16.79,27.86v16.22c0,22.37-18.13,40.5-40.5,40.5h-89.08c-22.36,0-40.5-18.13-40.5-40.5v-16.22c9.78-3.99,16.79-14.96,16.79-27.86s-7.01-23.86-16.79-27.86v-17.14c0-22.36,18.14-40.5,40.5-40.5h38.87v28.13h11.34v-28.13h38.87c22.37,0,40.5,18.14,40.5,40.5v17.14c-9.78,4-16.79,14.96-16.79,27.86Z"/>
  <rect class="cls-1" x=".5" y="231.35" width="141.73" height="141.73"/>
  <rect class="cls-1" x="409.61" y="224.8" width="170.08" height="170.08" rx="27.21" ry="27.21"/>
  <path class="cls-1" d="m889.5,394.37v115.66c0,15.03-12.18,27.21-27.2,27.21h-115.67c-15.03,0-27.21-12.18-27.21-27.21v-115.66c0-15.03,12.18-27.21,27.21-27.21h52.16v28.13h11.34v-28.13h52.17c15.02,0,27.2,12.18,27.2,27.21Z"/>
  <rect class="cls-1" x="733.59" y="381.33" width="141.73" height="141.73"/>
  <path class="cls-1" d="m889.67,394.02v115.66c0,15.03-12.18,27.21-27.2,27.21h-115.67c-15.03,0-27.21-12.18-27.21-27.21v-115.66c0-15.03,12.18-27.21,27.21-27.21h52.16v28.13h11.34v-28.13h52.17c15.02,0,27.2,12.18,27.2,27.21Z"/>
  <rect class="cls-1" x="733.77" y="380.98" width="141.73" height="141.73"/>
  <path class="cls-1" d="m1386.74,27.71v115.66c0,15.03-12.18,27.21-27.2,27.21h-115.67c-15.03,0-27.21-12.18-27.21-27.21V27.71c0-15.03,12.18-27.21,27.21-27.21h52.16v14.18h-65.2v141.73h141.73V14.68h-65.19V.5h52.17c15.02,0,27.2,12.18,27.2,27.21Z"/>
</svg>