<?xml version="1.0" encoding="UTF-8" standalone="no"?>
<!-- Created with Inkscape (http://www.inkscape.org/) -->

<svg
   width="500mm"
   height="500mm"
   viewBox="0 0 500 500"
   version="1.1"
   id="svg2259"
   inkscape:version="1.2.1 (9c6d41e410, 2022-07-14)"
   sodipodi:docname="ecocolineaire_recto.svg"
   xmlns:inkscape="http://www.inkscape.org/namespaces/inkscape"
   xmlns:sodipodi="http://sodipodi.sourceforge.net/DTD/sodipodi-0.dtd"
   xmlns="http://www.w3.org/2000/svg"
   xmlns:svg="http://www.w3.org/2000/svg">
  <sodipodi:namedview
     id="namedview2261"
     pagecolor="#ffffff"
     bordercolor="#000000"
     borderopacity="0.25"
     inkscape:showpageshadow="2"
     inkscape:pageopacity="0.0"
     inkscape:pagecheckerboard="0"
     inkscape:deskcolor="#d1d1d1"
     inkscape:document-units="mm"
     showgrid="false"
     inkscape:zoom="0.5946522"
     inkscape:cx="1055.2387"
     inkscape:cy="822.32942"
     inkscape:window-width="1928"
     inkscape:window-height="510"
     inkscape:window-x="176"
     inkscape:window-y="269"
     inkscape:window-maximized="0"
     inkscape:current-layer="layer3" />
  <defs
     id="defs2256" />
  <g
     inkscape:label="Calque 1"
     inkscape:groupmode="layer"
     id="layer1">
    <path
       id="rect2795-3"
       style="fill:none;stroke:#000000;stroke-width:0.110376;stroke-linecap:square;stroke-linejoin:miter;stroke-miterlimit:2.5;paint-order:fill markers stroke"
       d="m 42.951213,19.864771 v 5.7981 l 16.57573,16.67598 c 2.22704,2.11161 6.86521,6.73199 6.88278,12.19926 0.0176,5.46895 -4.58896,10.76561 -6.85849,13.00179 l -16.60002,17.32917 v 4.88549 H 229.66074 v -4.88549 l 16.60054,-17.32917 c 2.26953,-2.23618 6.87558,-7.53284 6.85798,-13.00179 -0.0176,-5.46727 -4.65575,-10.08765 -6.88279,-12.19926 l -16.57573,-16.67598 v -5.7981 z" />
    <path
       id="rect2795-3-6"
       style="fill:none;stroke:#000000;stroke-width:0.110376;stroke-linecap:square;stroke-linejoin:miter;stroke-miterlimit:2.5;paint-order:fill markers stroke"
       d="m 241.17132,20.085625 v 5.7981 l 16.57573,16.67598 c 2.22704,2.11161 6.86521,6.73199 6.88278,12.19926 0.0176,5.46895 -4.58896,10.76561 -6.85849,13.00179 l -16.60002,17.329174 v 4.88549 h 186.70953 v -4.88549 l 16.60054,-17.329174 c 2.26953,-2.23618 6.87558,-7.53284 6.85798,-13.00179 -0.0176,-5.46727 -4.65575,-10.08765 -6.88279,-12.19926 l -16.57573,-16.67598 v -5.7981 z" />
    <path
       id="rect2795-3-2"
       style="fill:none;stroke:#000000;stroke-width:0.110376;stroke-linecap:square;stroke-linejoin:miter;stroke-miterlimit:2.5;paint-order:fill markers stroke"
       d="m 27.890444,96.032114 v 5.798096 l 16.57573,16.67598 c 2.22704,2.11161 6.86521,6.73199 6.88278,12.19926 0.0176,5.46895 -4.58896,10.76561 -6.85849,13.00179 l -16.60002,17.32917 v 4.88549 H 214.59998 v -4.88549 l 16.60054,-17.32917 c 2.26953,-2.23618 6.87558,-7.53284 6.85798,-13.00179 -0.0176,-5.46727 -4.65575,-10.08765 -6.88279,-12.19926 l -16.57573,-16.67598 v -5.798096 z" />
    <path
       id="rect2795-3-6-2"
       style="fill:none;stroke:#000000;stroke-width:0.110376;stroke-linecap:square;stroke-linejoin:miter;stroke-miterlimit:2.5;paint-order:fill markers stroke"
       d="m 228.34232,97.161935 v 5.798085 l 16.57573,16.67598 c 2.22704,2.11161 6.86521,6.73199 6.88278,12.19926 0.0176,5.46895 -4.58896,10.76561 -6.85849,13.00179 l -16.60002,17.32917 v 4.88549 h 186.70953 v -4.88549 l 16.60054,-17.32917 c 2.26953,-2.23618 6.87558,-7.53284 6.85798,-13.00179 -0.0176,-5.46727 -4.65575,-10.08765 -6.88279,-12.19926 l -16.57573,-16.67598 v -5.798085 z" />
    <path
       id="rect2795-3-7"
       style="fill:none;stroke:#000000;stroke-width:0.110376;stroke-linecap:square;stroke-linejoin:miter;stroke-miterlimit:2.5;paint-order:fill markers stroke"
       d="m 18.16086,175.23312 v 5.7981 l 16.57573,16.67598 c 2.22704,2.11161 6.86521,6.73199 6.88278,12.19926 0.0176,5.46894 -4.58896,10.7656 -6.85849,13.00178 l -16.60002,17.32917 v 4.88549 h 186.70953 v -4.88549 l 16.60054,-17.32917 c 2.26953,-2.23618 6.87558,-7.53284 6.85798,-13.00178 -0.0176,-5.46727 -4.65575,-10.08765 -6.88279,-12.19926 l -16.57573,-16.67598 v -5.7981 z" />
    <path
       id="rect2795-3-6-7"
       style="fill:none;stroke:#000000;stroke-width:0.110376;stroke-linecap:square;stroke-linejoin:miter;stroke-miterlimit:2.5;paint-order:fill markers stroke"
       d="m 218.13969,174.97663 v 5.7981 l 16.57573,16.67598 c 2.22704,2.11161 6.86521,6.73199 6.88278,12.19926 0.0176,5.46894 -4.58896,10.7656 -6.85849,13.00178 l -16.60002,17.32917 v 4.88549 h 186.70953 v -4.88549 l 16.60054,-17.32917 c 2.26953,-2.23618 6.87558,-7.53284 6.85798,-13.00178 -0.0176,-5.46727 -4.65575,-10.08765 -6.88279,-12.19926 l -16.57573,-16.67598 v -5.7981 z" />
    <path
       id="rect2795-3-3"
       style="fill:none;stroke:#000000;stroke-width:0.110376;stroke-linecap:square;stroke-linejoin:miter;stroke-miterlimit:2.5;paint-order:fill markers stroke"
       d="m 10.279266,252.7585 v 5.7981 l 16.57573,16.67598 c 2.22704,2.11161 6.86521,6.73199 6.88278,12.19926 0.0176,5.46895 -4.58896,10.76561 -6.85849,13.00179 l -16.60002,17.32917 v 4.88549 H 196.98879 v -4.88549 l 16.60054,-17.32917 c 2.26953,-2.23618 6.87558,-7.53284 6.85798,-13.00179 -0.0176,-5.46727 -4.65575,-10.08765 -6.88279,-12.19926 L 196.98879,258.5566 v -5.7981 z" />
    <path
       id="rect2795-3-6-8"
       style="fill:none;stroke:#000000;stroke-width:0.110376;stroke-linecap:square;stroke-linejoin:miter;stroke-miterlimit:2.5;paint-order:fill markers stroke"
       d="m 216.84575,252.97975 v 5.7981 l 16.57573,16.67598 c 2.22704,2.11161 6.86521,6.73199 6.88278,12.19926 0.0176,5.46895 -4.58896,10.76561 -6.85849,13.00179 l -16.60002,17.32917 v 4.88549 h 186.70953 v -4.88549 l 16.60054,-17.32917 c 2.26953,-2.23618 6.87558,-7.53284 6.85798,-13.00179 -0.0176,-5.46727 -4.65575,-10.08765 -6.88279,-12.19926 l -16.57573,-16.67598 v -5.7981 z" />
  </g>
  <g
     inkscape:groupmode="layer"
     id="layer2"
     inkscape:label="Calque 2" />
  <g
     inkscape:groupmode="layer"
     id="layer3"
     inkscape:label="Calque 3">
    <g
       aria-label="Distribution"
       transform="rotate(8.129628)"
       id="text5888"
       style="font-size:19.7556px;font-family:OPTIVenus;-inkscape-font-specification:OPTIVenus;text-align:center;text-anchor:middle;fill:#c83737;stroke:#000000;stroke-width:0.156;stroke-linecap:square;stroke-miterlimit:2.5;paint-order:fill markers stroke">
      <path
         d="m 106.96026,26.235833 q 3.00285,0 4.72158,1.857026 1.71874,1.857027 1.71874,5.116701 0,3.378207 -1.73849,5.254989 -1.71874,1.876782 -4.62281,1.876782 h -6.12424 V 26.235833 Z m -0.19756,11.497759 q 1.67923,0 2.60774,-1.106313 0.92851,-1.106314 0.92851,-3.141141 0,-2.331161 -1.00753,-3.476985 -0.98778,-1.165581 -3.06212,-1.165581 h -2.21263 v 8.89002 z"
         style="font-weight:bold;font-family:'Helvetica Neue';-inkscape-font-specification:'Helvetica Neue Bold';stroke:none"
         id="path6190" />
      <path
         d="m 118.14191,26.235833 v 2.311405 h -2.8053 v -2.311405 z m 0,3.891853 v 10.213645 h -2.8053 V 30.127686 Z"
         style="font-weight:bold;font-family:'Helvetica Neue';-inkscape-font-specification:'Helvetica Neue Bold';stroke:none"
         id="path6192" />
      <path
         d="m 124.54271,29.851108 q 2.05458,0 3.20041,0.829735 1.16558,0.829735 1.30387,2.429939 h -2.66701 q -0.0593,-0.730957 -0.5334,-1.047047 -0.47413,-0.335845 -1.38289,-0.335845 -0.79022,0 -1.18534,0.237067 -0.37535,0.237067 -0.37535,0.711202 0,0.3556 0.25682,0.592668 0.25682,0.237067 0.77047,0.414867 0.5334,0.177801 1.16558,0.296334 1.91629,0.375357 2.70652,0.770469 0.79022,0.395112 1.14582,0.948268 0.37536,0.553157 0.37536,1.363137 0,1.718737 -1.26436,2.64725 -1.2446,0.908758 -3.39796,0.908758 -2.25214,0 -3.5165,-0.968025 -1.2446,-0.968024 -1.28412,-2.627494 h 2.66701 q 0,0.790224 0.61242,1.264358 0.61243,0.454379 1.54094,0.454379 0.79023,0 1.30387,-0.335845 0.5334,-0.355601 0.5334,-0.968025 0,-0.395112 -0.33584,-0.651935 -0.31609,-0.256822 -0.90876,-0.454378 -0.59267,-0.197556 -1.83727,-0.454379 -0.98778,-0.197556 -1.75825,-0.533401 -0.77047,-0.335846 -1.18534,-0.869247 -0.39511,-0.553157 -0.39511,-1.343381 0,-1.007535 0.47414,-1.758248 0.49389,-0.750713 1.48167,-1.126069 1.00753,-0.395112 2.4892,-0.395112 z"
         style="font-weight:bold;font-family:'Helvetica Neue';-inkscape-font-specification:'Helvetica Neue Bold';stroke:none"
         id="path6194" />
      <path
         d="m 134.51931,27.065568 v 3.062118 h 2.05458 v 1.876782 h -2.05458 v 5.057434 q 0,0.711201 0.23706,0.948269 0.23707,0.237067 0.94827,0.237067 0.51365,0 0.86925,-0.07902 v 2.192872 q -0.59267,0.09878 -1.65947,0.09878 -1.61996,0 -2.41019,-0.553157 -0.79022,-0.553157 -0.79022,-1.916293 v -5.985947 h -1.69898 v -1.876782 h 1.69898 v -3.062118 z"
         style="font-weight:bold;font-family:'Helvetica Neue';-inkscape-font-specification:'Helvetica Neue Bold';stroke:none"
         id="path6196" />
      <path
         d="m 143.88344,29.851108 q 0.35561,0 0.61243,0.09878 v 2.607739 q -0.45438,-0.09878 -1.00754,-0.09878 -2.76578,0 -2.76578,3.27943 v 4.603054 h -2.8053 V 30.127686 h 2.66701 v 1.896538 h 0.0395 q 0.41487,-0.98778 1.30387,-1.580448 0.90876,-0.592668 1.9558,-0.592668 z"
         style="font-weight:bold;font-family:'Helvetica Neue';-inkscape-font-specification:'Helvetica Neue Bold';stroke:none"
         id="path6198" />
      <path
         d="m 148.4865,26.235833 v 2.311405 h -2.8053 v -2.311405 z m 0,3.891853 v 10.213645 h -2.8053 V 30.127686 Z"
         style="font-weight:bold;font-family:'Helvetica Neue';-inkscape-font-specification:'Helvetica Neue Bold';stroke:none"
         id="path6200" />
      <path
         d="m 153.50441,26.235833 v 5.136456 h 0.0395 q 0.45438,-0.691446 1.28411,-1.106314 0.8495,-0.414867 1.93605,-0.414867 1.87679,0 3.04237,1.501425 1.18533,1.501426 1.18533,3.872098 0,2.390428 -1.16558,3.891853 -1.16558,1.501426 -3.08187,1.501426 -2.48921,0 -3.3387,-1.580448 h -0.0395 v 1.303869 h -2.66701 V 26.235833 Z m -0.0988,9.008554 q 0,1.48167 0.65194,2.370672 0.65193,0.889002 1.73849,0.889002 1.0668,0 1.71874,-0.869247 0.67169,-0.869246 0.67169,-2.390427 0,-1.501426 -0.65194,-2.390428 -0.63218,-0.889002 -1.75825,-0.889002 -1.10631,0 -1.73849,0.908758 -0.63218,0.908757 -0.63218,2.370672 z"
         style="font-weight:bold;font-family:'Helvetica Neue';-inkscape-font-specification:'Helvetica Neue Bold';stroke:none"
         id="path6202" />
      <path
         d="m 165.57508,30.127686 v 5.788391 q 0,1.185336 0.37536,1.837271 0.37535,0.651935 1.4224,0.651935 1.16558,0 1.65947,-0.691446 0.51365,-0.691446 0.51365,-2.212628 v -5.373523 h 2.80529 v 10.213645 h -2.667 v -1.422403 h -0.0593 q -1.04705,1.698982 -3.14114,1.698982 -1.99532,0 -2.86456,-1.007536 -0.84949,-1.027291 -0.84949,-3.14114 v -6.341548 z"
         style="font-weight:bold;font-family:'Helvetica Neue';-inkscape-font-specification:'Helvetica Neue Bold';stroke:none"
         id="path6204" />
      <path
         d="m 178.04087,27.065568 v 3.062118 h 2.05459 v 1.876782 h -2.05459 v 5.057434 q 0,0.711201 0.23707,0.948269 0.23707,0.237067 0.94827,0.237067 0.51365,0 0.86925,-0.07902 v 2.192872 q -0.59267,0.09878 -1.65947,0.09878 -1.61996,0 -2.41019,-0.553157 -0.79022,-0.553157 -0.79022,-1.916293 v -5.985947 h -1.69898 v -1.876782 h 1.69898 v -3.062118 z"
         style="font-weight:bold;font-family:'Helvetica Neue';-inkscape-font-specification:'Helvetica Neue Bold';stroke:none"
         id="path6206" />
      <path
         d="m 184.32314,26.235833 v 2.311405 h -2.8053 v -2.311405 z m 0,3.891853 v 10.213645 h -2.8053 V 30.127686 Z"
         style="font-weight:bold;font-family:'Helvetica Neue';-inkscape-font-specification:'Helvetica Neue Bold';stroke:none"
         id="path6208" />
      <path
         d="m 191.49441,29.851108 q 2.44969,0 3.8721,1.501425 1.4224,1.48167 1.4224,3.891854 0,2.429938 -1.46191,3.911608 -1.44216,1.461915 -3.83259,1.461915 -2.42994,0 -3.85234,-1.48167 -1.42241,-1.501426 -1.42241,-3.891853 0,-2.46945 1.44216,-3.931365 1.46192,-1.461914 3.83259,-1.461914 z m -2.46945,5.393279 q 0,1.560692 0.63218,2.410183 0.63218,0.849491 1.83727,0.849491 1.2446,0 1.85703,-0.869247 0.63217,-0.869246 0.63217,-2.390427 0,-1.580448 -0.65193,-2.429939 -0.63218,-0.849491 -1.85703,-0.849491 -1.18533,0 -1.81751,0.849491 -0.63218,0.849491 -0.63218,2.429939 z"
         style="font-weight:bold;font-family:'Helvetica Neue';-inkscape-font-specification:'Helvetica Neue Bold';stroke:none"
         id="path6210" />
      <path
         d="m 204.47385,29.851108 q 1.9558,0 2.82505,0.98778 0.889,0.98778 0.889,3.14114 v 6.361303 h -2.8053 v -5.78839 q 0,-1.264359 -0.41486,-1.876782 -0.39512,-0.612424 -1.3829,-0.612424 -1.14582,0 -1.65947,0.691446 -0.51364,0.691446 -0.51364,2.271894 v 5.314256 h -2.8053 V 30.127686 h 2.66701 v 1.422403 h 0.0593 q 1.04704,-1.698981 3.14114,-1.698981 z"
         style="font-weight:bold;font-family:'Helvetica Neue';-inkscape-font-specification:'Helvetica Neue Bold';stroke:none"
         id="path6212" />
    </g>
    <g
       aria-label="Fin de vie"
       transform="rotate(8.129628)"
       id="text5942"
       style="font-weight:bold;font-size:19.7556px;font-family:'Helvetica Neue';-inkscape-font-specification:'Helvetica Neue Bold';text-align:center;text-anchor:middle;fill:#c83737;stroke-width:0.156;stroke-linecap:square;stroke-miterlimit:2.5;paint-order:fill markers stroke">
      <path
         d="m 116.46352,103.63201 v 2.60774 h -6.81568 v 3.25968 h 5.90693 v 2.41018 h -5.90693 v 5.8279 h -3.10163 v -14.1055 z"
         id="path6215" />
      <path
         d="m 120.84928,103.63201 v 2.31141 h -2.8053 v -2.31141 z m 0,3.89186 v 10.21364 h -2.8053 v -10.21364 z"
         id="path6217" />
      <path
         d="m 128.9293,107.24729 q 1.95581,0 2.82505,0.98778 0.88901,0.98778 0.88901,3.14114 v 6.3613 h -2.8053 v -5.78839 q 0,-1.26436 -0.41487,-1.87678 -0.39511,-0.61243 -1.38289,-0.61243 -1.14582,0 -1.65947,0.69145 -0.51364,0.69145 -0.51364,2.27189 v 5.31426 h -2.8053 v -10.21364 h 2.66701 v 1.4224 h 0.0593 q 1.04705,-1.69898 3.14114,-1.69898 z"
         id="path6219" />
      <path
         d="m 150.22585,103.63201 v 14.1055 h -2.66701 v -1.30387 h -0.0395 q -0.90876,1.58045 -3.10163,1.58045 -2.11385,0 -3.35845,-1.54094 -1.22485,-1.54093 -1.22485,-3.93136 0,-2.33116 1.2446,-3.81283 1.26436,-1.48167 3.27943,-1.48167 0.92852,0 1.7385,0.39511 0.82973,0.37536 1.28411,1.12607 h 0.0395 v -5.13646 z m -7.58615,8.9888 q 0,1.40265 0.65193,2.35092 0.67169,0.92851 1.81752,0.92851 1.20509,0 1.79776,-0.86925 0.61242,-0.889 0.61242,-2.42994 0,-1.54093 -0.63218,-2.39042 -0.63218,-0.84949 -1.79776,-0.84949 -1.20509,0 -1.83727,0.889 -0.61242,0.889 -0.61242,2.37067 z"
         id="path6221" />
      <path
         d="m 157.06129,107.24729 q 1.44216,0 2.56823,0.67169 1.12606,0.67169 1.75824,1.9558 0.65194,1.26436 0.65194,2.92383 0,0.15805 -0.0198,0.51365 h -7.36884 q 0.0395,1.22484 0.63218,1.91629 0.61243,0.67169 1.85703,0.67169 0.77047,0 1.40265,-0.37536 0.65193,-0.39511 0.82973,-0.94827 h 2.46945 q -1.08656,3.43748 -4.78085,3.43748 -1.40265,-0.0198 -2.60774,-0.61242 -1.18534,-0.59267 -1.89654,-1.83728 -0.7112,-1.26435 -0.7112,-2.92382 0,-1.5607 0.7112,-2.84481 0.73096,-1.28411 1.91629,-1.91629 1.2051,-0.63218 2.58799,-0.63218 z m 2.15336,4.28696 q -0.19756,-1.14582 -0.73096,-1.65947 -0.5334,-0.51364 -1.52118,-0.51364 -1.02729,0 -1.61996,0.59266 -0.59267,0.57292 -0.69145,1.58045 z"
         id="path6223" />
      <path
         d="m 171.14702,107.52387 2.15336,6.97372 h 0.0395 l 2.15336,-6.97372 h 2.78554 l -3.45723,10.21364 h -3.12139 l -3.49674,-10.21364 z"
         id="path6225" />
      <path
         d="m 182.32869,103.63201 v 2.31141 h -2.80529 v -2.31141 z m 0,3.89186 v 10.21364 h -2.80529 v -10.21364 z"
         id="path6227" />
      <path
         d="m 189.26289,107.24729 q 1.44216,0 2.56823,0.67169 1.12607,0.67169 1.75825,1.9558 0.65194,1.26436 0.65194,2.92383 0,0.15805 -0.0198,0.51365 h -7.36884 q 0.0395,1.22484 0.63218,1.91629 0.61242,0.67169 1.85703,0.67169 0.77046,0 1.40264,-0.37536 0.65194,-0.39511 0.82974,-0.94827 h 2.46945 q -1.08656,3.43748 -4.78086,3.43748 -1.40264,-0.0198 -2.60774,-0.61242 -1.18533,-0.59267 -1.89653,-1.83728 -0.7112,-1.26435 -0.7112,-2.92382 0,-1.5607 0.7112,-2.84481 0.73095,-1.28411 1.91629,-1.91629 1.20509,-0.63218 2.58798,-0.63218 z m 2.15336,4.28696 q -0.19755,-1.14582 -0.73095,-1.65947 -0.5334,-0.51364 -1.52118,-0.51364 -1.0273,0 -1.61996,0.59266 -0.59267,0.57292 -0.69145,1.58045 z"
         id="path6229" />
    </g>
    <g
       aria-label="Utilisation"
       transform="rotate(8.129628)"
       id="text5946"
       style="font-weight:bold;font-size:19.7556px;font-family:'Helvetica Neue';-inkscape-font-specification:'Helvetica Neue Bold';text-align:center;text-anchor:middle;fill:#c83737;stroke-width:0.156;stroke-linecap:square;stroke-miterlimit:2.5;paint-order:fill markers stroke">
      <path
         d="m 108.95747,183.54515 v 8.83075 q 0,1.5607 0.69145,2.29165 0.7112,0.71121 2.21263,0.71121 1.61996,0 2.27189,-0.71121 0.65194,-0.73095 0.65194,-2.29165 v -8.83075 h 3.10162 v 8.83075 q 0,2.64726 -1.52118,4.12893 -1.50142,1.48167 -4.50427,1.48167 -3.06212,0 -4.54379,-1.48167 -1.46192,-1.48167 -1.46192,-4.12893 v -8.83075 z"
         id="path6090" />
      <path
         d="m 123.81367,184.37489 v 3.06211 h 2.05458 v 1.87679 h -2.05458 v 5.05743 q 0,0.7112 0.23707,0.94827 0.23706,0.23707 0.94827,0.23707 0.51364,0 0.86924,-0.079 v 2.19288 q -0.59267,0.0988 -1.65947,0.0988 -1.61996,0 -2.41018,-0.55315 -0.79023,-0.55316 -0.79023,-1.9163 v -5.98594 h -1.69898 V 187.437 h 1.69898 v -3.06211 z"
         id="path6092" />
      <path
         d="m 130.09594,183.54515 v 2.31141 h -2.8053 v -2.31141 z m 0,3.89185 v 10.21365 h -2.8053 V 187.437 Z"
         id="path6094" />
      <path
         d="m 135.19287,183.54515 v 14.1055 h -2.8053 v -14.1055 z"
         id="path6096" />
      <path
         d="m 140.2898,183.54515 v 2.31141 h -2.80529 v -2.31141 z m 0,3.89185 v 10.21365 h -2.80529 V 187.437 Z"
         id="path6098" />
      <path
         d="m 146.6906,187.16043 q 2.05459,0 3.20041,0.82973 1.16558,0.82974 1.30387,2.42994 h -2.667 q -0.0593,-0.73096 -0.53341,-1.04705 -0.47413,-0.33584 -1.38289,-0.33584 -0.79022,0 -1.18533,0.23707 -0.37536,0.23706 -0.37536,0.7112 0,0.3556 0.25682,0.59267 0.25683,0.23706 0.77047,0.41486 0.5334,0.1778 1.16558,0.29634 1.91629,0.37535 2.70652,0.77047 0.79022,0.39511 1.14582,0.94826 0.37536,0.55316 0.37536,1.36314 0,1.71874 -1.26436,2.64725 -1.2446,0.90876 -3.39796,0.90876 -2.25214,0 -3.5165,-0.96803 -1.2446,-0.96802 -1.28411,-2.62749 h 2.667 q 0,0.79022 0.61243,1.26436 0.61242,0.45438 1.54093,0.45438 0.79023,0 1.30387,-0.33585 0.5334,-0.3556 0.5334,-0.96802 0,-0.39512 -0.33584,-0.65194 -0.31609,-0.25682 -0.90876,-0.45438 -0.59267,-0.19755 -1.83727,-0.45438 -0.98778,-0.19755 -1.75825,-0.5334 -0.77047,-0.33584 -1.18533,-0.86924 -0.39512,-0.55316 -0.39512,-1.34338 0,-1.00754 0.47414,-1.75825 0.49389,-0.75072 1.48167,-1.12607 1.00753,-0.39511 2.4892,-0.39511 z"
         id="path6100" />
      <path
         d="m 157.81302,187.16043 q 4.46477,0.0198 4.46477,2.90407 v 5.41303 q 0,1.50143 0.3556,2.17312 h -2.84481 q -0.15804,-0.47413 -0.19755,-0.98778 -1.24461,1.26436 -3.43748,1.26436 -1.6002,0 -2.54847,-0.80998 -0.92851,-0.80998 -0.92851,-2.25214 0,-1.40265 0.889,-2.17312 0.90876,-0.80998 3.29918,-1.02729 1.69899,-0.1778 2.15336,-0.43462 0.45438,-0.27658 0.45438,-0.82974 0,-0.69144 -0.41486,-1.02729 -0.41487,-0.33584 -1.3829,-0.33584 -0.889,0 -1.34338,0.37535 -0.45438,0.35561 -0.5334,1.16559 h -2.80529 q 0.0988,-1.67923 1.38289,-2.54848 1.28411,-0.86924 3.43747,-0.86924 z m -2.33116,7.58615 q 0,1.30387 1.71874,1.30387 2.25214,-0.0198 2.27189,-2.31141 v -1.08656 q -0.33584,0.33585 -1.69898,0.49389 -1.18533,0.13829 -1.73849,0.49389 -0.55316,0.33585 -0.55316,1.10632 z"
         id="path6102" />
      <path
         d="m 168.0069,184.37489 v 3.06211 h 2.05458 v 1.87679 h -2.05458 v 5.05743 q 0,0.7112 0.23707,0.94827 0.23706,0.23707 0.94827,0.23707 0.51364,0 0.86924,-0.079 v 2.19288 q -0.59267,0.0988 -1.65947,0.0988 -1.61996,0 -2.41018,-0.55315 -0.79023,-0.55316 -0.79023,-1.9163 v -5.98594 h -1.69898 V 187.437 h 1.69898 v -3.06211 z"
         id="path6104" />
      <path
         d="m 174.28917,183.54515 v 2.31141 h -2.8053 v -2.31141 z m 0,3.89185 v 10.21365 h -2.8053 V 187.437 Z"
         id="path6106" />
      <path
         d="m 181.46044,187.16043 q 2.44969,0 3.87209,1.50142 1.42241,1.48167 1.42241,3.89186 0,2.42993 -1.46192,3.9116 -1.44216,1.46192 -3.83258,1.46192 -2.42994,0 -3.85235,-1.48167 -1.4224,-1.50143 -1.4224,-3.89185 0,-2.46945 1.44216,-3.93137 1.46191,-1.46191 3.83259,-1.46191 z m -2.46945,5.39328 q 0,1.56069 0.63217,2.41018 0.63218,0.84949 1.83728,0.84949 1.2446,0 1.85702,-0.86925 0.63218,-0.86924 0.63218,-2.39042 0,-1.58045 -0.65193,-2.42994 -0.63218,-0.84949 -1.85703,-0.84949 -1.18534,0 -1.81752,0.84949 -0.63217,0.84949 -0.63217,2.42994 z"
         id="path6108" />
      <path
         d="m 194.43986,187.16043 q 1.95581,0 2.82506,0.98778 0.889,0.98778 0.889,3.14114 v 6.3613 h -2.8053 v -5.78839 q 0,-1.26436 -0.41487,-1.87678 -0.39511,-0.61243 -1.38289,-0.61243 -1.14582,0 -1.65947,0.69145 -0.51364,0.69145 -0.51364,2.27189 v 5.31426 h -2.8053 V 187.437 h 2.66701 v 1.42241 h 0.0593 q 1.04705,-1.69898 3.14114,-1.69898 z"
         id="path6110" />
    </g>
    <g
       aria-label="Conception"
       transform="rotate(8.129628)"
       id="text5950"
       style="font-weight:bold;font-size:19.7556px;font-family:'Helvetica Neue';-inkscape-font-specification:'Helvetica Neue Bold';text-align:center;text-anchor:middle;fill:#c83737;stroke-width:0.156;stroke-linecap:square;stroke-miterlimit:2.5;paint-order:fill markers stroke">
      <path
         d="m 108.5264,261.23474 q 2.46945,0 4.14868,1.40265 1.67923,1.38289 1.93605,3.67454 h -3.00285 q -0.15805,-1.04704 -1.04705,-1.75825 -0.889,-0.7112 -2.03483,-0.7112 -1.81751,0 -2.82505,1.30387 -1.00753,1.30387 -1.00753,3.53625 0,2.17312 1.00753,3.45723 1.02729,1.26436 2.82505,1.26436 1.34338,0 2.17312,-0.80998 0.82973,-0.82973 1.02729,-2.35091 h 3.00285 q -0.23707,2.68676 -1.93605,4.22769 -1.67922,1.54094 -4.26721,1.54094 -3.10163,0 -5.01792,-2.03483 -1.91629,-2.05458 -1.91629,-5.2945 0,-3.27943 1.89654,-5.35376 1.89653,-2.0941 5.03767,-2.0941 z"
         id="path6036" />
      <path
         d="m 121.50582,265.18586 q 2.44969,0 3.87209,1.50143 1.42241,1.48167 1.42241,3.89185 0,2.42994 -1.46192,3.91161 -1.44216,1.46191 -3.83258,1.46191 -2.42994,0 -3.85234,-1.48167 -1.42241,-1.50142 -1.42241,-3.89185 0,-2.46945 1.44216,-3.93136 1.46192,-1.46192 3.83259,-1.46192 z m -2.46945,5.39328 q 0,1.56069 0.63218,2.41018 0.63218,0.8495 1.83727,0.8495 1.2446,0 1.85702,-0.86925 0.63218,-0.86925 0.63218,-2.39043 0,-1.58045 -0.65193,-2.42994 -0.63218,-0.84949 -1.85703,-0.84949 -1.18533,0 -1.81751,0.84949 -0.63218,0.84949 -0.63218,2.42994 z"
         id="path6038" />
      <path
         d="m 134.48525,265.18586 q 1.9558,0 2.82505,0.98778 0.889,0.98778 0.889,3.14114 v 6.36131 h -2.8053 v -5.78839 q 0,-1.26436 -0.41486,-1.87679 -0.39512,-0.61242 -1.3829,-0.61242 -1.14582,0 -1.65947,0.69145 -0.51364,0.69144 -0.51364,2.27189 v 5.31426 h -2.8053 v -10.21365 h 2.66701 v 1.4224 h 0.0593 q 1.04704,-1.69898 3.14114,-1.69898 z"
         id="path6040" />
      <path
         d="m 145.2323,265.18586 q 2.07434,0 3.37821,1.06681 1.30387,1.04704 1.4224,2.80529 h -2.74602 q -0.27658,-1.75825 -2.07434,-1.75825 -1.10632,0 -1.75825,0.90876 -0.63218,0.90876 -0.63218,2.41018 0,1.44216 0.61242,2.33116 0.61243,0.88901 1.71874,0.88901 1.91629,0 2.23238,-2.07434 h 2.70652 q -0.27658,2.03482 -1.58045,3.12138 -1.28411,1.0668 -3.33869,1.0668 -2.2719,0 -3.71406,-1.44215 -1.44216,-1.46192 -1.44216,-3.79308 0,-2.52872 1.42241,-4.03014 1.4224,-1.50143 3.79307,-1.50143 z"
         id="path6042" />
      <path
         d="m 156.3942,265.18586 q 1.44216,0 2.56823,0.67169 1.12607,0.67169 1.75825,1.95581 0.65194,1.26436 0.65194,2.92383 0,0.15804 -0.0198,0.51364 h -7.36884 q 0.0395,1.22485 0.63218,1.9163 0.61242,0.67169 1.85703,0.67169 0.77047,0 1.40264,-0.37536 0.65194,-0.39511 0.82974,-0.94827 h 2.46945 q -1.08656,3.43747 -4.78086,3.43747 -1.40264,-0.0197 -2.60773,-0.61242 -1.18534,-0.59267 -1.89654,-1.83727 -0.7112,-1.26436 -0.7112,-2.92383 0,-1.56069 0.7112,-2.8448 0.73096,-1.28412 1.91629,-1.9163 1.20509,-0.63218 2.58798,-0.63218 z m 2.15337,4.28697 q -0.19756,-1.14583 -0.73096,-1.65947 -0.5334,-0.51365 -1.52118,-0.51365 -1.02729,0 -1.61996,0.59267 -0.59267,0.57291 -0.69145,1.58045 z"
         id="path6044" />
      <path
         d="m 168.7612,265.18586 q 2.11385,0 3.37821,1.48167 1.26435,1.48167 1.26435,4.01039 0,2.3114 -1.22484,3.79307 -1.20509,1.48167 -3.25968,1.48167 -2.01507,0 -3.06211,-1.54093 h -0.0395 v 4.85988 h -2.80529 v -13.80917 h 2.66701 v 1.30387 h 0.0395 q 1.00753,-1.58045 3.04236,-1.58045 z m -3.04236,5.41304 q 0,1.50142 0.63218,2.37067 0.63217,0.86925 1.81751,0.86925 1.22485,0 1.81752,-0.86925 0.61242,-0.86925 0.61242,-2.37067 0,-1.54094 -0.65194,-2.41019 -0.65193,-0.889 -1.81751,-0.889 -1.16558,0 -1.79776,0.86925 -0.61242,0.86924 -0.61242,2.42994 z"
         id="path6046" />
      <path
         d="m 178.639,262.40032 v 3.06212 h 2.05458 v 1.87678 H 178.639 v 5.05744 q 0,0.7112 0.23707,0.94827 0.23706,0.23706 0.94826,0.23706 0.51365,0 0.86925,-0.079 v 2.19287 q -0.59267,0.0988 -1.65947,0.0988 -1.61996,0 -2.41018,-0.55316 -0.79023,-0.55315 -0.79023,-1.91629 v -5.98595 h -1.69898 v -1.87678 h 1.69898 v -3.06212 z"
         id="path6048" />
      <path
         d="m 184.92126,261.57059 v 2.3114 h -2.80529 v -2.3114 z m 0,3.89185 v 10.21365 h -2.80529 v -10.21365 z"
         id="path6050" />
      <path
         d="m 192.09254,265.18586 q 2.4497,0 3.8721,1.50143 1.4224,1.48167 1.4224,3.89185 0,2.42994 -1.46191,3.91161 -1.44216,1.46191 -3.83259,1.46191 -2.42994,0 -3.85234,-1.48167 -1.4224,-1.50142 -1.4224,-3.89185 0,-2.46945 1.44216,-3.93136 1.46191,-1.46192 3.83258,-1.46192 z m -2.46945,5.39328 q 0,1.56069 0.63218,2.41018 0.63218,0.8495 1.83727,0.8495 1.2446,0 1.85703,-0.86925 0.63218,-0.86925 0.63218,-2.39043 0,-1.58045 -0.65194,-2.42994 -0.63218,-0.84949 -1.85702,-0.84949 -1.18534,0 -1.81752,0.84949 -0.63218,0.84949 -0.63218,2.42994 z"
         id="path6052" />
      <path
         d="m 205.07197,265.18586 q 1.9558,0 2.82505,0.98778 0.889,0.98778 0.889,3.14114 v 6.36131 h -2.80529 v -5.78839 q 0,-1.26436 -0.41487,-1.87679 -0.39511,-0.61242 -1.38289,-0.61242 -1.14583,0 -1.65947,0.69145 -0.51365,0.69144 -0.51365,2.27189 v 5.31426 h -2.80529 v -10.21365 h 2.667 v 1.4224 h 0.0593 q 1.04705,-1.69898 3.14114,-1.69898 z"
         id="path6054" />
    </g>
    <g
       aria-label="Fabrication"
       transform="rotate(8.129628)"
       id="text5954"
       style="font-weight:bold;font-size:19.7556px;font-family:'Helvetica Neue';-inkscape-font-specification:'Helvetica Neue Bold';text-align:center;text-anchor:middle;fill:#c83737;stroke-width:0.156;stroke-linecap:square;stroke-miterlimit:2.5;paint-order:fill markers stroke">
      <path
         d="m 309.14629,-1.5764638 v 2.6077392 h -6.81568 v 3.259674 h 5.90692 v 2.4101832 h -5.90692 v 5.8279024 h -3.10163 V -1.5764638 Z"
         id="path6167" />
      <path
         d="m 314.51983,2.038811 q 4.46476,0.019756 4.46476,2.9040732 v 5.4130348 q 0,1.501425 0.3556,2.173116 h -2.8448 q -0.15805,-0.474135 -0.19756,-0.98778 -1.2446,1.264358 -3.43747,1.264358 -1.60021,0 -2.54848,-0.80998 -0.92851,-0.809979 -0.92851,-2.252138 0,-1.4026476 0.889,-2.173116 0.90876,-0.8099796 3.29919,-1.0272912 1.69898,-0.1778004 2.15336,-0.4346232 0.45438,-0.2765784 0.45438,-0.8297352 0,-0.691446 -0.41487,-1.0272912 -0.41487,-0.3358452 -1.38289,-0.3358452 -0.88901,0 -1.34338,0.3753564 -0.45438,0.3556008 -0.53341,1.1655804 h -2.80529 q 0.0988,-1.679226 1.38289,-2.5484724 1.28412,-0.8692464 3.43748,-0.8692464 z m -2.33116,7.5861504 q 0,1.3038696 1.71873,1.3038696 2.25214,-0.01976 2.2719,-2.3114052 v -1.086558 q -0.33585,0.3358452 -1.69899,0.49389 -1.18533,0.1382892 -1.73849,0.49389 -0.55315,0.3358452 -0.55315,1.1063136 z"
         id="path6169" />
      <path
         d="m 323.96299,-1.5764638 v 5.136456 h 0.0395 q 0.45438,-0.691446 1.28412,-1.1063136 0.84949,-0.4148676 1.93604,-0.4148676 1.87679,0 3.04237,1.5014256 1.18533,1.5014256 1.18533,3.8720976 0,2.3904276 -1.16558,3.8918528 -1.16558,1.501426 -3.08187,1.501426 -2.48921,0 -3.3387,-1.580448 h -0.0395 v 1.30387 h -2.667 V -1.5764638 Z m -0.0988,9.0085536 q 0,1.48167 0.65194,2.370672 0.65193,0.8890022 1.73849,0.8890022 1.0668,0 1.71874,-0.8692466 0.67169,-0.8692464 0.67169,-2.3904276 0,-1.5014256 -0.65194,-2.3904276 -0.63218,-0.889002 -1.75825,-0.889002 -1.10631,0 -1.73849,0.9087576 -0.63218,0.9087576 -0.63218,2.370672 z"
         id="path6171" />
      <path
         d="m 339.19456,2.038811 q 0.3556,0 0.61242,0.098778 v 2.6077392 q -0.45438,-0.098778 -1.00753,-0.098778 -2.76579,0 -2.76579,3.2794296 v 4.6030552 h -2.80529 V 2.3153894 h 2.667 V 4.211927 h 0.0395 q 0.41486,-0.98778 1.30387,-1.580448 0.90875,-0.592668 1.9558,-0.592668 z"
         id="path6173" />
      <path
         d="m 343.79762,-1.5764638 v 2.31140523 h -2.8053 V -1.5764638 Z m 0,3.8918532 V 12.529035 h -2.8053 V 2.3153894 Z"
         id="path6175" />
      <path
         d="m 350.90962,2.038811 q 2.07434,0 3.37821,1.0668024 1.30387,1.0470468 1.4224,2.8052952 h -2.74603 q -0.27658,-1.7582484 -2.07434,-1.7582484 -1.10631,0 -1.75825,0.9087576 -0.63218,0.9087576 -0.63218,2.4101832 0,1.4421588 0.61243,2.3311608 0.61242,0.8890022 1.71874,0.8890022 1.91629,0 2.23238,-2.0743382 h 2.70652 q -0.27658,2.0348272 -1.58045,3.1213852 -1.28412,1.066802 -3.3387,1.066802 -2.27189,0 -3.71405,-1.442159 -1.44216,-1.4619142 -1.44216,-3.793075 0,-2.5287168 1.4224,-4.0301424 1.42241,-1.5014256 3.79308,-1.5014256 z"
         id="path6177" />
      <path
         d="m 362.05176,2.038811 q 4.46477,0.019756 4.46477,2.9040732 v 5.4130348 q 0,1.501425 0.3556,2.173116 h -2.84481 q -0.15804,-0.474135 -0.19755,-0.98778 -1.2446,1.264358 -3.43748,1.264358 -1.6002,0 -2.54847,-0.80998 -0.92851,-0.809979 -0.92851,-2.252138 0,-1.4026476 0.889,-2.173116 0.90876,-0.8099796 3.29919,-1.0272912 1.69898,-0.1778004 2.15336,-0.4346232 0.45437,-0.2765784 0.45437,-0.8297352 0,-0.691446 -0.41486,-1.0272912 -0.41487,-0.3358452 -1.38289,-0.3358452 -0.88901,0 -1.34339,0.3753564 -0.45437,0.3556008 -0.5334,1.1655804 h -2.80529 q 0.0988,-1.679226 1.38289,-2.5484724 1.28411,-0.8692464 3.43747,-0.8692464 z m -2.33116,7.5861504 q 0,1.3038696 1.71874,1.3038696 2.25214,-0.01976 2.27189,-2.3114052 v -1.086558 q -0.33584,0.3358452 -1.69898,0.49389 -1.18533,0.1382892 -1.73849,0.49389 -0.55316,0.3358452 -0.55316,1.1063136 z"
         id="path6179" />
      <path
         d="M 372.24564,-0.74672857 V 2.3153894 h 2.05458 v 1.876782 h -2.05458 V 9.249605 q 0,0.7112016 0.23707,0.948269 0.23707,0.237067 0.94827,0.237067 0.51364,0 0.86924,-0.07902 v 2.192871 q -0.59266,0.09878 -1.65947,0.09878 -1.61995,0 -2.41018,-0.553157 -0.79022,-0.553156 -0.79022,-1.916293 V 4.1921714 h -1.69898 v -1.876782 h 1.69898 v -3.06211797 z"
         id="path6181" />
      <path
         d="m 378.52791,-1.5764638 v 2.31140523 h -2.8053 V -1.5764638 Z m 0,3.8918532 V 12.529035 h -2.8053 V 2.3153894 Z"
         id="path6183" />
      <path
         d="m 385.69918,2.038811 q 2.44969,0 3.8721,1.5014256 1.4224,1.48167 1.4224,3.8918532 0,2.4299388 -1.46192,3.9116092 -1.44215,1.461914 -3.83258,1.461914 -2.42994,0 -3.85234,-1.48167 -1.42241,-1.5014256 -1.42241,-3.8918532 0,-2.46945 1.44216,-3.9313644 1.46192,-1.4619144 3.83259,-1.4619144 z m -2.46945,5.3932788 q 0,1.5606924 0.63218,2.4101832 0.63218,0.849491 1.83727,0.849491 1.2446,0 1.85702,-0.8692466 0.63218,-0.8692464 0.63218,-2.3904276 0,-1.580448 -0.65193,-2.4299388 -0.63218,-0.8494908 -1.85703,-0.8494908 -1.18533,0 -1.81751,0.8494908 -0.63218,0.8494908 -0.63218,2.4299388 z"
         id="path6185" />
      <path
         d="m 398.67861,2.038811 q 1.95581,0 2.82506,0.98778 0.889,0.98778 0.889,3.1411404 v 6.3613036 h -2.8053 V 6.7406438 q 0,-1.2643584 -0.41487,-1.876782 -0.39511,-0.6124236 -1.38289,-0.6124236 -1.14582,0 -1.65947,0.691446 -0.51364,0.691446 -0.51364,2.271894 v 5.3142568 h -2.8053 V 2.3153894 h 2.66701 v 1.4224032 h 0.0593 q 1.04705,-1.6989816 3.14114,-1.6989816 z"
         id="path6187" />
    </g>
    <g
       aria-label="Communication"
       transform="rotate(8.129628)"
       id="text5958"
       style="font-weight:bold;font-size:19.7556px;font-family:'Helvetica Neue';-inkscape-font-specification:'Helvetica Neue Bold';text-align:center;text-anchor:middle;fill:#c83737;stroke-width:0.156;stroke-linecap:square;stroke-miterlimit:2.5;paint-order:fill markers stroke">
      <path
         d="m 282.12543,76.364824 q 2.46945,0 4.14867,1.402648 1.67923,1.382892 1.93605,3.674541 h -3.00285 q -0.15804,-1.047047 -1.04705,-1.758248 -0.889,-0.711202 -2.03482,-0.711202 -1.81752,0 -2.82505,1.30387 -1.00754,1.303869 -1.00754,3.536252 0,2.173116 1.00754,3.45723 1.02729,1.264359 2.82505,1.264359 1.34338,0 2.17311,-0.80998 0.82974,-0.829735 1.0273,-2.350916 h 3.00285 q -0.23707,2.686761 -1.93605,4.227698 -1.67923,1.540937 -4.26721,1.540937 -3.10163,0 -5.01792,-2.034827 -1.9163,-2.054582 -1.9163,-5.294501 0,-3.279429 1.89654,-5.353767 1.89654,-2.094094 5.03768,-2.094094 z"
         id="path6140" />
      <path
         d="m 295.10484,80.315944 q 2.4497,0 3.8721,1.501426 1.4224,1.48167 1.4224,3.891853 0,2.429939 -1.46191,3.911609 -1.44216,1.461914 -3.83259,1.461914 -2.42994,0 -3.85234,-1.48167 -1.4224,-1.501426 -1.4224,-3.891853 0,-2.46945 1.44216,-3.931365 1.46191,-1.461914 3.83258,-1.461914 z m -2.46945,5.393279 q 0,1.560692 0.63218,2.410183 0.63218,0.849491 1.83727,0.849491 1.2446,0 1.85703,-0.869247 0.63218,-0.869246 0.63218,-2.390427 0,-1.580448 -0.65194,-2.429939 -0.63218,-0.849491 -1.85702,-0.849491 -1.18534,0 -1.81752,0.849491 -0.63218,0.849491 -0.63218,2.429939 z"
         id="path6142" />
      <path
         d="m 308.10403,80.315944 q 2.23238,0 2.98309,1.698982 1.16558,-1.698982 3.10163,-1.698982 1.9163,0 2.8053,0.968024 0.90875,0.968025 0.90875,2.667006 v 6.855194 h -2.80529 v -5.906925 q 0,-1.343381 -0.41487,-1.857026 -0.39511,-0.513646 -1.30387,-0.513646 -1.87678,0 -1.87678,2.568228 v 5.709369 H 308.6967 V 84.78071 q 0,-1.30387 -0.41487,-1.778004 -0.41487,-0.474135 -1.28412,-0.474135 -0.80998,0 -1.36313,0.651935 -0.5334,0.632179 -0.5334,1.679226 v 5.946436 h -2.8053 V 80.592522 h 2.64725 v 1.382892 h 0.0395 q 1.16558,-1.65947 3.12139,-1.65947 z"
         id="path6144" />
      <path
         d="m 326.00261,80.315944 q 2.23238,0 2.98309,1.698982 1.16558,-1.698982 3.10163,-1.698982 1.91629,0 2.8053,0.968024 0.90875,0.968025 0.90875,2.667006 v 6.855194 h -2.80529 v -5.906925 q 0,-1.343381 -0.41487,-1.857026 -0.39511,-0.513646 -1.30387,-0.513646 -1.87678,0 -1.87678,2.568228 v 5.709369 h -2.8053 V 84.78071 q 0,-1.30387 -0.41486,-1.778004 -0.41487,-0.474135 -1.28412,-0.474135 -0.80998,0 -1.36313,0.651935 -0.53341,0.632179 -0.53341,1.679226 v 5.946436 h -2.80529 V 80.592522 h 2.64725 v 1.382892 h 0.0395 q 1.16558,-1.65947 3.12139,-1.65947 z"
         id="path6146" />
      <path
         d="m 340.81931,80.592522 v 5.788391 q 0,1.185336 0.37535,1.837271 0.37536,0.651935 1.42241,0.651935 1.16558,0 1.65947,-0.691446 0.51364,-0.691446 0.51364,-2.212627 v -5.373524 h 2.8053 v 10.213646 h -2.66701 v -1.422404 h -0.0593 q -1.04705,1.698982 -3.14115,1.698982 -1.99531,0 -2.86456,-1.007536 -0.84949,-1.027291 -0.84949,-3.14114 v -6.341548 z"
         id="path6148" />
      <path
         d="m 355.5965,80.315944 q 1.95581,0 2.82505,0.98778 0.889,0.98778 0.889,3.14114 v 6.361304 h -2.80529 v -5.788391 q 0,-1.264359 -0.41487,-1.876782 -0.39511,-0.612424 -1.38289,-0.612424 -1.14583,0 -1.65947,0.691446 -0.51365,0.691446 -0.51365,2.271894 v 5.314257 h -2.80529 V 80.592522 h 2.667 v 1.422404 h 0.0593 q 1.04705,-1.698982 3.14114,-1.698982 z"
         id="path6150" />
      <path
         d="m 364.32849,76.700669 v 2.311405 h -2.8053 v -2.311405 z m 0,3.891853 v 10.213646 h -2.8053 V 80.592522 Z"
         id="path6152" />
      <path
         d="m 371.4405,80.315944 q 2.07433,0 3.3782,1.066802 1.30387,1.047047 1.42241,2.805296 h -2.74603 q -0.27658,-1.758249 -2.07434,-1.758249 -1.10631,0 -1.75825,0.908758 -0.63218,0.908757 -0.63218,2.410183 0,1.442159 0.61243,2.331161 0.61242,0.889002 1.71873,0.889002 1.9163,0 2.23239,-2.074338 h 2.70651 q -0.27657,2.034827 -1.58044,3.121385 -1.28412,1.066802 -3.3387,1.066802 -2.27189,0 -3.71405,-1.442159 -1.44216,-1.461914 -1.44216,-3.793075 0,-2.528717 1.4224,-4.030142 1.4224,-1.501426 3.79308,-1.501426 z"
         id="path6154" />
      <path
         d="m 382.58264,80.315944 q 4.46476,0.01976 4.46476,2.904073 v 5.413035 q 0,1.501425 0.35561,2.173116 h -2.84481 q -0.15805,-0.474135 -0.19756,-0.98778 -1.2446,1.264358 -3.43747,1.264358 -1.6002,0 -2.54847,-0.80998 -0.92852,-0.809979 -0.92852,-2.252138 0,-1.402648 0.88901,-2.173116 0.90875,-0.80998 3.29918,-1.027291 1.69898,-0.177801 2.15336,-0.434623 0.45438,-0.276579 0.45438,-0.829736 0,-0.691446 -0.41487,-1.027291 -0.41487,-0.335845 -1.38289,-0.335845 -0.889,0 -1.34338,0.375356 -0.45438,0.355601 -0.5334,1.165581 h -2.8053 q 0.0988,-1.679226 1.38289,-2.548473 1.28412,-0.869246 3.43748,-0.869246 z m -2.33116,7.58615 q 0,1.30387 1.71874,1.30387 2.25213,-0.01976 2.27189,-2.311405 v -1.086558 q -0.33585,0.335845 -1.69898,0.49389 -1.18534,0.138289 -1.73849,0.49389 -0.55316,0.335845 -0.55316,1.106313 z"
         id="path6156" />
      <path
         d="m 392.77652,77.530404 v 3.062118 h 2.05458 v 1.876782 h -2.05458 v 5.057434 q 0,0.711202 0.23707,0.948269 0.23707,0.237067 0.94827,0.237067 0.51364,0 0.86924,-0.07902 v 2.192871 q -0.59266,0.09878 -1.65947,0.09878 -1.61996,0 -2.41018,-0.553157 -0.79022,-0.553156 -0.79022,-1.916293 v -5.985947 h -1.69899 v -1.876782 h 1.69899 v -3.062118 z"
         id="path6158" />
      <path
         d="m 399.05879,76.700669 v 2.311405 h -2.8053 v -2.311405 z m 0,3.891853 v 10.213646 h -2.8053 V 80.592522 Z"
         id="path6160" />
      <path
         d="m 406.23006,80.315944 q 2.44969,0 3.87209,1.501426 1.42241,1.48167 1.42241,3.891853 0,2.429939 -1.46192,3.911609 -1.44216,1.461914 -3.83258,1.461914 -2.42994,0 -3.85235,-1.48167 -1.4224,-1.501426 -1.4224,-3.891853 0,-2.46945 1.44216,-3.931365 1.46191,-1.461914 3.83259,-1.461914 z m -2.46945,5.393279 q 0,1.560692 0.63218,2.410183 0.63218,0.849491 1.83727,0.849491 1.2446,0 1.85702,-0.869247 0.63218,-0.869246 0.63218,-2.390427 0,-1.580448 -0.65193,-2.429939 -0.63218,-0.849491 -1.85703,-0.849491 -1.18533,0 -1.81751,0.849491 -0.63218,0.849491 -0.63218,2.429939 z"
         id="path6162" />
      <path
         d="m 419.20949,80.315944 q 1.95581,0 2.82505,0.98778 0.88901,0.98778 0.88901,3.14114 v 6.361304 h -2.8053 v -5.788391 q 0,-1.264359 -0.41487,-1.876782 -0.39511,-0.612424 -1.38289,-0.612424 -1.14582,0 -1.65947,0.691446 -0.51365,0.691446 -0.51365,2.271894 v 5.314257 h -2.80529 V 80.592522 h 2.66701 v 1.422404 h 0.0593 q 1.04705,-1.698982 3.14114,-1.698982 z"
         id="path6164" />
    </g>
    <g
       aria-label="Offre marketing"
       transform="rotate(8.129628)"
       id="text5962"
       style="font-weight:bold;font-size:19.7556px;font-family:'Helvetica Neue';-inkscape-font-specification:'Helvetica Neue Bold';text-align:center;text-anchor:middle;fill:#c83737;stroke-width:0.156;stroke-linecap:square;stroke-miterlimit:2.5;paint-order:fill markers stroke">
      <path
         d="m 283.86462,152.94298 q 3.12139,0 5.01792,2.07434 1.9163,2.07434 1.9163,5.37352 0,3.22016 -1.9163,5.27475 -1.91629,2.05458 -5.01792,2.05458 -3.12138,0 -5.03768,-2.05458 -1.89653,-2.05459 -1.89653,-5.27475 0,-3.27943 1.91629,-5.35377 1.91629,-2.09409 5.01792,-2.09409 z m -3.83258,7.44786 q 0,2.13361 1.00753,3.43748 1.00754,1.28411 2.82505,1.28411 1.77801,0 2.8053,-1.26436 1.02729,-1.28411 1.02729,-3.45723 0,-2.27189 -1.02729,-3.55601 -1.00754,-1.28411 -2.82505,-1.28411 -1.77801,0 -2.8053,1.28411 -1.00753,1.28412 -1.00753,3.55601 z"
         id="path6113" />
      <path
         d="m 296.64649,153.27882 q 0.3556,0 1.48167,0.079 v 2.09409 q -0.57291,-0.0593 -1.00753,-0.0593 -0.57292,0 -0.82974,0.25683 -0.25682,0.23706 -0.25682,0.86924 v 0.65194 h 3.18065 v -0.77047 q 0,-1.48167 0.90876,-2.29165 0.90876,-0.82974 2.50896,-0.82974 0.31609,0 1.48167,0.079 v 2.09409 q -0.55316,-0.0593 -1.00754,-0.0593 -0.61242,0 -0.84949,0.27658 -0.23706,0.27658 -0.23706,0.86925 v 0.63218 h 1.93604 v 1.87678 h -1.93604 v 8.33686 h -2.8053 v -8.33686 h -3.18065 v 8.33686 h -2.8053 v -8.33686 h -1.67922 v -1.87678 h 1.67922 v -0.75071 q 0,-1.48167 0.88901,-2.31141 0.90875,-0.82974 2.52871,-0.82974 z"
         id="path6115" />
      <path
         d="m 311.1471,156.8941 q 0.3556,0 0.61242,0.0988 v 2.60774 q -0.45438,-0.0988 -1.00753,-0.0988 -2.76579,0 -2.76579,3.27943 v 4.60305 h -2.80529 v -10.21364 h 2.667 v 1.89654 h 0.0395 q 0.41487,-0.98778 1.30387,-1.58045 0.90876,-0.59267 1.95581,-0.59267 z"
         id="path6117" />
      <path
         d="m 317.42939,156.8941 q 1.44216,0 2.56823,0.67169 1.12607,0.67169 1.75824,1.9558 0.65194,1.26436 0.65194,2.92383 0,0.15805 -0.0198,0.51365 h -7.36883 q 0.0395,1.22485 0.63217,1.91629 0.61243,0.67169 1.85703,0.67169 0.77047,0 1.40265,-0.37535 0.65193,-0.39512 0.82973,-0.94827 h 2.46945 q -1.08655,3.43747 -4.78085,3.43747 -1.40265,-0.0197 -2.60774,-0.61242 -1.18534,-0.59267 -1.89654,-1.83727 -0.7112,-1.26436 -0.7112,-2.92383 0,-1.56069 0.7112,-2.84481 0.73096,-1.28411 1.91629,-1.91629 1.2051,-0.63218 2.58799,-0.63218 z m 2.15336,4.28696 q -0.19756,-1.14582 -0.73096,-1.65947 -0.5334,-0.51364 -1.52118,-0.51364 -1.02729,0 -1.61996,0.59267 -0.59267,0.57291 -0.69144,1.58044 z"
         id="path6119" />
      <path
         d="m 335.42673,156.8941 q 2.23238,0 2.98309,1.69898 1.16558,-1.69898 3.10163,-1.69898 1.91629,0 2.8053,0.96802 0.90875,0.96803 0.90875,2.66701 v 6.85519 h -2.80529 v -5.90692 q 0,-1.34338 -0.41487,-1.85703 -0.39511,-0.51364 -1.30387,-0.51364 -1.87678,0 -1.87678,2.56822 v 5.70937 h -2.8053 v -6.02545 q 0,-1.30387 -0.41486,-1.77801 -0.41487,-0.47413 -1.28412,-0.47413 -0.80998,0 -1.36313,0.65193 -0.53341,0.63218 -0.53341,1.67923 v 5.94643 h -2.80529 v -10.21364 h 2.64725 v 1.38289 h 0.0395 q 1.16558,-1.65947 3.12139,-1.65947 z"
         id="path6121" />
      <path
         d="m 352.13996,156.8941 q 4.46477,0.0198 4.46477,2.90407 v 5.41304 q 0,1.50142 0.3556,2.17311 h -2.84481 q -0.15804,-0.47413 -0.19755,-0.98778 -1.2446,1.26436 -3.43748,1.26436 -1.6002,0 -2.54847,-0.80998 -0.92851,-0.80998 -0.92851,-2.25214 0,-1.40264 0.889,-2.17311 0.90876,-0.80998 3.29919,-1.02729 1.69898,-0.1778 2.15336,-0.43463 0.45437,-0.27658 0.45437,-0.82973 0,-0.69145 -0.41486,-1.02729 -0.41487,-0.33585 -1.38289,-0.33585 -0.88901,0 -1.34339,0.37536 -0.45437,0.3556 -0.5334,1.16558 h -2.80529 q 0.0988,-1.67923 1.38289,-2.54847 1.28411,-0.86925 3.43747,-0.86925 z m -2.33116,7.58615 q 0,1.30387 1.71874,1.30387 2.25214,-0.0198 2.27189,-2.31141 v -1.08655 q -0.33584,0.33584 -1.69898,0.49389 -1.18533,0.13829 -1.73849,0.49389 -0.55316,0.33584 -0.55316,1.10631 z"
         id="path6123" />
      <path
         d="m 364.74403,156.8941 q 0.3556,0 0.61242,0.0988 v 2.60774 q -0.45438,-0.0988 -1.00753,-0.0988 -2.76579,0 -2.76579,3.27943 v 4.60305 h -2.80529 v -10.21364 h 2.667 v 1.89654 h 0.0395 q 0.41486,-0.98778 1.30386,-1.58045 0.90876,-0.59267 1.95581,-0.59267 z"
         id="path6125" />
      <path
         d="m 369.52488,153.27882 v 7.5664 l 3.53625,-3.67454 h 3.31894 l -3.85234,3.75356 4.28696,6.46008 h -3.39796 l -2.80529,-4.56354 -1.08656,1.04705 v 3.51649 h -2.8053 v -14.1055 z"
         id="path6127" />
      <path
         d="m 382.24747,156.8941 q 1.44216,0 2.56823,0.67169 1.12607,0.67169 1.75825,1.9558 0.65193,1.26436 0.65193,2.92383 0,0.15805 -0.0198,0.51365 h -7.36884 q 0.0395,1.22485 0.63218,1.91629 0.61242,0.67169 1.85703,0.67169 0.77046,0 1.40264,-0.37535 0.65194,-0.39512 0.82974,-0.94827 h 2.46945 q -1.08656,3.43747 -4.78086,3.43747 -1.40264,-0.0197 -2.60774,-0.61242 -1.18533,-0.59267 -1.89653,-1.83727 -0.71121,-1.26436 -0.71121,-2.92383 0,-1.56069 0.71121,-2.84481 0.73095,-1.28411 1.91629,-1.91629 1.20509,-0.63218 2.58798,-0.63218 z m 2.15336,4.28696 q -0.19755,-1.14582 -0.73095,-1.65947 -0.5334,-0.51364 -1.52118,-0.51364 -1.0273,0 -1.61996,0.59267 -0.59267,0.57291 -0.69145,1.58044 z"
         id="path6129" />
      <path
         d="m 392.4216,154.10856 v 3.06212 h 2.05458 v 1.87678 h -2.05458 v 5.05743 q 0,0.71121 0.23707,0.94827 0.23706,0.23707 0.94827,0.23707 0.51364,0 0.86924,-0.079 v 2.19287 q -0.59267,0.0988 -1.65947,0.0988 -1.61996,0 -2.41018,-0.55316 -0.79023,-0.55316 -0.79023,-1.91629 v -5.98595 h -1.69898 v -1.87678 h 1.69898 v -3.06212 z"
         id="path6131" />
      <path
         d="m 398.70387,153.27882 v 2.31141 h -2.8053 v -2.31141 z m 0,3.89186 v 10.21364 h -2.8053 v -10.21364 z"
         id="path6133" />
      <path
         d="m 406.78389,156.8941 q 1.95581,0 2.82505,0.98778 0.88901,0.98778 0.88901,3.14114 v 6.3613 h -2.8053 v -5.78839 q 0,-1.26436 -0.41487,-1.87678 -0.39511,-0.61242 -1.38289,-0.61242 -1.14582,0 -1.65947,0.69144 -0.51365,0.69145 -0.51365,2.2719 v 5.31425 h -2.80529 v -10.21364 h 2.66701 v 1.4224 h 0.0593 q 1.04705,-1.69898 3.14114,-1.69898 z"
         id="path6135" />
      <path
         d="m 416.70122,156.8941 q 2.11385,0 3.04236,1.63971 h 0.0395 v -1.36313 h 2.66701 v 9.58146 q 0,2.21263 -1.38289,3.35846 -1.36314,1.14582 -3.89185,1.14582 -1.93605,0 -3.20041,-0.92851 -1.2446,-0.92852 -1.32363,-2.35092 h 2.78554 q 0.33585,1.40265 2.0941,1.40265 1.08655,0 1.65947,-0.65194 0.59266,-0.63218 0.59266,-1.81751 v -1.40265 h -0.0395 q -0.41486,0.75071 -1.22484,1.16558 -0.79023,0.41487 -1.83727,0.41487 -2.05459,0 -3.22017,-1.34338 -1.14582,-1.34338 -1.14582,-3.79308 0,-2.17311 1.20509,-3.61527 1.22485,-1.44216 3.18065,-1.44216 z m -1.58045,5.01792 q 0,1.44216 0.59267,2.25214 0.61242,0.80998 1.67923,0.80998 1.08655,0 1.73849,-0.77047 0.65193,-0.79022 0.65193,-2.07434 0,-1.54093 -0.63217,-2.33116 -0.61243,-0.79022 -1.77801,-0.79022 -1.08656,0 -1.67922,0.82973 -0.57292,0.80998 -0.57292,2.07434 z"
         id="path6137" />
    </g>
    <g
       aria-label="Matiere premieres"
       transform="rotate(8.129628)"
       id="text5966"
       style="font-weight:bold;font-size:19.05px;font-family:'Helvetica Neue';-inkscape-font-specification:'Helvetica Neue Bold';text-align:center;text-anchor:middle;fill:#c83737;stroke-width:0.156;stroke-linecap:square;stroke-miterlimit:2.5;paint-order:fill markers stroke">
      <path
         d="m 288.25551,231.64174 3.18135,9.35355 h 0.0381 l 3.0099,-9.35355 h 4.21005 v 13.6017 h -2.80035 v -9.6393 h -0.0381 l -3.33375,9.6393 h -2.30505 l -3.33375,-9.54405 h -0.0381 v 9.54405 h -2.80035 v -13.6017 z"
         id="path6057" />
      <path
         d="m 305.57195,235.12789 q 4.3053,0.019 4.3053,2.80035 v 5.2197 q 0,1.4478 0.3429,2.0955 h -2.7432 q -0.1524,-0.4572 -0.1905,-0.9525 -1.20015,1.2192 -3.3147,1.2192 -1.54305,0 -2.45745,-0.78105 -0.89535,-0.78105 -0.89535,-2.1717 0,-1.35255 0.85725,-2.0955 0.8763,-0.78105 3.18135,-0.9906 1.6383,-0.17145 2.07645,-0.4191 0.43815,-0.2667 0.43815,-0.8001 0,-0.66675 -0.40005,-0.9906 -0.40005,-0.32385 -1.3335,-0.32385 -0.85725,0 -1.2954,0.36195 -0.43815,0.3429 -0.51435,1.12395 h -2.7051 q 0.0953,-1.61925 1.3335,-2.45745 1.23825,-0.8382 3.3147,-0.8382 z m -2.2479,7.3152 q 0,1.2573 1.65735,1.2573 2.1717,-0.019 2.19075,-2.22885 v -1.04775 q -0.32385,0.32385 -1.6383,0.47625 -1.143,0.13335 -1.6764,0.47625 -0.5334,0.32385 -0.5334,1.0668 z"
         id="path6059" />
      <path
         d="m 315.40174,232.44184 v 2.95275 h 1.9812 v 1.80975 h -1.9812 v 4.8768 q 0,0.6858 0.2286,0.9144 0.2286,0.2286 0.9144,0.2286 0.4953,0 0.8382,-0.0762 v 2.11455 q -0.5715,0.0952 -1.6002,0.0952 -1.5621,0 -2.3241,-0.5334 -0.762,-0.5334 -0.762,-1.84785 v -5.77215 h -1.6383 v -1.80975 h 1.6383 v -2.95275 z"
         id="path6061" />
      <path
         d="m 321.45963,231.64174 v 2.22885 h -2.7051 v -2.22885 z m 0,3.75285 v 9.84885 h -2.7051 v -9.84885 z"
         id="path6063" />
      <path
         d="m 328.14616,235.12789 q 1.39065,0 2.4765,0.6477 1.08585,0.6477 1.69545,1.88595 0.62865,1.2192 0.62865,2.8194 0,0.1524 -0.019,0.4953 h -7.10565 q 0.0381,1.1811 0.6096,1.84785 0.59055,0.6477 1.7907,0.6477 0.74295,0 1.35255,-0.36195 0.62865,-0.381 0.8001,-0.9144 h 2.38125 q -1.04775,3.3147 -4.6101,3.3147 -1.35255,-0.019 -2.5146,-0.59055 -1.143,-0.5715 -1.8288,-1.77165 -0.6858,-1.2192 -0.6858,-2.8194 0,-1.50495 0.6858,-2.7432 0.70485,-1.23825 1.84785,-1.84785 1.16205,-0.6096 2.49555,-0.6096 z m 2.07645,4.13385 q -0.1905,-1.1049 -0.70485,-1.6002 -0.51435,-0.4953 -1.46685,-0.4953 -0.9906,0 -1.5621,0.5715 -0.5715,0.55245 -0.66675,1.524 z"
         id="path6065" />
      <path
         d="m 340.281,235.12789 q 0.3429,0 0.59055,0.0952 v 2.5146 q -0.43815,-0.0952 -0.97155,-0.0952 -2.667,0 -2.667,3.1623 v 4.43865 h -2.7051 v -9.84885 h 2.57175 v 1.8288 h 0.0381 q 0.40005,-0.9525 1.2573,-1.524 0.8763,-0.5715 1.88595,-0.5715 z"
         id="path6067" />
      <path
         d="m 346.33891,235.12789 q 1.39065,0 2.4765,0.6477 1.08585,0.6477 1.69545,1.88595 0.62865,1.2192 0.62865,2.8194 0,0.1524 -0.019,0.4953 h -7.10565 q 0.0381,1.1811 0.6096,1.84785 0.59055,0.6477 1.7907,0.6477 0.74295,0 1.35255,-0.36195 0.62865,-0.381 0.8001,-0.9144 h 2.38125 q -1.04775,3.3147 -4.6101,3.3147 -1.35255,-0.019 -2.5146,-0.59055 -1.143,-0.5715 -1.8288,-1.77165 -0.6858,-1.2192 -0.6858,-2.8194 0,-1.50495 0.6858,-2.7432 0.70485,-1.23825 1.84785,-1.84785 1.16205,-0.6096 2.49555,-0.6096 z m 2.07645,4.13385 q -0.1905,-1.1049 -0.70485,-1.6002 -0.51435,-0.4953 -1.46685,-0.4953 -0.9906,0 -1.5621,0.5715 -0.5715,0.55245 -0.66675,1.524 z"
         id="path6069" />
      <path
         d="m 363.56009,235.12789 q 2.03835,0 3.25755,1.42875 1.2192,1.42875 1.2192,3.86715 0,2.22885 -1.1811,3.6576 -1.16205,1.42875 -3.14325,1.42875 -1.9431,0 -2.95275,-1.4859 h -0.0381 v 4.6863 h -2.7051 v -13.31595 h 2.57175 v 1.2573 h 0.0381 q 0.97155,-1.524 2.9337,-1.524 z m -2.9337,5.2197 q 0,1.4478 0.6096,2.286 0.6096,0.8382 1.7526,0.8382 1.1811,0 1.7526,-0.8382 0.59055,-0.8382 0.59055,-2.286 0,-1.4859 -0.62865,-2.3241 -0.62865,-0.85725 -1.7526,-0.85725 -1.12395,0 -1.73355,0.8382 -0.59055,0.8382 -0.59055,2.34315 z"
         id="path6071" />
      <path
         d="m 375.4092,235.12789 q 0.3429,0 0.59055,0.0952 v 2.5146 q -0.43815,-0.0952 -0.97155,-0.0952 -2.667,0 -2.667,3.1623 v 4.43865 h -2.7051 v -9.84885 h 2.57175 v 1.8288 h 0.0381 q 0.40005,-0.9525 1.2573,-1.524 0.8763,-0.5715 1.88595,-0.5715 z"
         id="path6073" />
      <path
         d="m 381.46711,235.12789 q 1.39065,0 2.4765,0.6477 1.08585,0.6477 1.69545,1.88595 0.62865,1.2192 0.62865,2.8194 0,0.1524 -0.0191,0.4953 h -7.10565 q 0.0381,1.1811 0.6096,1.84785 0.59055,0.6477 1.7907,0.6477 0.74295,0 1.35255,-0.36195 0.62865,-0.381 0.8001,-0.9144 h 2.38125 q -1.04775,3.3147 -4.6101,3.3147 -1.35255,-0.019 -2.5146,-0.59055 -1.143,-0.5715 -1.8288,-1.77165 -0.6858,-1.2192 -0.6858,-2.8194 0,-1.50495 0.6858,-2.7432 0.70485,-1.23825 1.84785,-1.84785 1.16205,-0.6096 2.49555,-0.6096 z m 2.07645,4.13385 q -0.1905,-1.1049 -0.70485,-1.6002 -0.51435,-0.4953 -1.46685,-0.4953 -0.9906,0 -1.5621,0.5715 -0.5715,0.55245 -0.66675,1.524 z"
         id="path6075" />
      <path
         d="m 393.52575,235.12789 q 2.15265,0 2.87655,1.6383 1.12395,-1.6383 2.99085,-1.6383 1.84785,0 2.7051,0.93345 0.8763,0.93345 0.8763,2.57175 v 6.61035 h -2.7051 v -5.69595 q 0,-1.2954 -0.40005,-1.7907 -0.381,-0.4953 -1.2573,-0.4953 -1.80975,0 -1.80975,2.4765 v 5.50545 h -2.7051 v -5.81025 q 0,-1.2573 -0.40005,-1.7145 -0.40005,-0.4572 -1.23825,-0.4572 -0.78105,0 -1.31445,0.62865 -0.51435,0.6096 -0.51435,1.61925 v 5.73405 h -2.7051 v -9.84885 h 2.5527 v 1.3335 h 0.0381 q 1.12395,-1.6002 3.0099,-1.6002 z"
         id="path6077" />
      <path
         d="m 407.88945,231.64174 v 2.22885 h -2.7051 v -2.22885 z m 0,3.75285 v 9.84885 h -2.7051 v -9.84885 z"
         id="path6079" />
      <path
         d="m 414.57599,235.12789 q 1.39065,0 2.4765,0.6477 1.08585,0.6477 1.69545,1.88595 0.62865,1.2192 0.62865,2.8194 0,0.1524 -0.0191,0.4953 h -7.10565 q 0.0381,1.1811 0.6096,1.84785 0.59055,0.6477 1.7907,0.6477 0.74295,0 1.35255,-0.36195 0.62865,-0.381 0.8001,-0.9144 h 2.38125 q -1.04775,3.3147 -4.6101,3.3147 -1.35255,-0.019 -2.5146,-0.59055 -1.143,-0.5715 -1.8288,-1.77165 -0.6858,-1.2192 -0.6858,-2.8194 0,-1.50495 0.6858,-2.7432 0.70485,-1.23825 1.84785,-1.84785 1.16205,-0.6096 2.49555,-0.6096 z m 2.07645,4.13385 q -0.1905,-1.1049 -0.70485,-1.6002 -0.51435,-0.4953 -1.46685,-0.4953 -0.9906,0 -1.5621,0.5715 -0.5715,0.55245 -0.66675,1.524 z"
         id="path6081" />
      <path
         d="m 426.71082,235.12789 q 0.3429,0 0.59055,0.0952 v 2.5146 q -0.43815,-0.0952 -0.97155,-0.0952 -2.667,0 -2.667,3.1623 v 4.43865 h -2.7051 v -9.84885 h 2.57175 v 1.8288 h 0.0381 q 0.40005,-0.9525 1.2573,-1.524 0.8763,-0.5715 1.88595,-0.5715 z"
         id="path6083" />
      <path
         d="m 432.76873,235.12789 q 1.39065,0 2.4765,0.6477 1.08585,0.6477 1.69545,1.88595 0.62865,1.2192 0.62865,2.8194 0,0.1524 -0.019,0.4953 h -7.10565 q 0.0381,1.1811 0.6096,1.84785 0.59055,0.6477 1.7907,0.6477 0.74295,0 1.35255,-0.36195 0.62865,-0.381 0.8001,-0.9144 h 2.38125 q -1.04775,3.3147 -4.6101,3.3147 -1.35255,-0.019 -2.5146,-0.59055 -1.143,-0.5715 -1.8288,-1.77165 -0.6858,-1.2192 -0.6858,-2.8194 0,-1.50495 0.6858,-2.7432 0.70485,-1.23825 1.84785,-1.84785 1.16205,-0.6096 2.49555,-0.6096 z m 2.07645,4.13385 q -0.1905,-1.1049 -0.70485,-1.6002 -0.51435,-0.4953 -1.46685,-0.4953 -0.9906,0 -1.5621,0.5715 -0.5715,0.55245 -0.66675,1.524 z"
         id="path6085" />
      <path
         d="m 443.18907,235.12789 q 1.9812,0 3.0861,0.8001 1.12395,0.8001 1.2573,2.34315 h -2.57175 q -0.0571,-0.70485 -0.51435,-1.00965 -0.4572,-0.32385 -1.3335,-0.32385 -0.762,0 -1.143,0.2286 -0.36195,0.2286 -0.36195,0.6858 0,0.3429 0.24765,0.5715 0.24765,0.2286 0.74295,0.40005 0.51435,0.17145 1.12395,0.28575 1.84785,0.36195 2.60985,0.74295 0.762,0.381 1.1049,0.9144 0.36195,0.5334 0.36195,1.31445 0,1.65735 -1.2192,2.5527 -1.20015,0.8763 -3.2766,0.8763 -2.1717,0 -3.3909,-0.93345 -1.20015,-0.93345 -1.23825,-2.53365 h 2.57175 q 0,0.762 0.59055,1.2192 0.59055,0.43815 1.4859,0.43815 0.762,0 1.2573,-0.32385 0.51435,-0.3429 0.51435,-0.93345 0,-0.381 -0.32385,-0.62865 -0.3048,-0.24765 -0.8763,-0.43815 -0.5715,-0.1905 -1.77165,-0.43815 -0.9525,-0.1905 -1.69545,-0.51435 -0.74295,-0.32385 -1.143,-0.8382 -0.381,-0.5334 -0.381,-1.2954 0,-0.97155 0.4572,-1.69545 0.47625,-0.7239 1.42875,-1.08585 0.97155,-0.381 2.4003,-0.381 z"
         id="path6087" />
    </g>
  </g>
</svg>
